<?xml version="1.0" encoding="UTF-8" standalone="no" ?>
<!DOCTYPE svg PUBLIC "-//W3C//DTD SVG 1.1//EN" "http://www.w3.org/Graphics/SVG/1.1/DTD/svg11.dtd">
<svg xmlns="http://www.w3.org/2000/svg" xmlns:xlink="http://www.w3.org/1999/xlink" version="1.1" width="1280" height="1024" viewBox="0 0 1280 1024" xml:space="preserve">
<desc>Created with Fabric.js 5.3.0</desc>
<defs>
</defs>
<g transform="matrix(1 0 0 1 640 512)" id="background-logo"  >
<rect style="stroke: none; stroke-width: 0; stroke-dasharray: none; stroke-linecap: butt; stroke-dashoffset: 0; stroke-linejoin: miter; stroke-miterlimit: 4; fill: rgb(8,20,41); fill-rule: nonzero; opacity: 1;"  paint-order="stroke"  x="-640" y="-512" rx="0" ry="0" width="1280" height="1024" />
</g>
<g transform="matrix(1.9211538461538462 0 0 1.9211538461538462 640 411.7374678291127)" id="logo-logo"  >
<g style=""  paint-order="stroke"   >
		<g transform="matrix(0.3721228867724121 0 0 0.3721228867724121 0 0)"  >
<path style="stroke: none; stroke-width: 1; stroke-dasharray: none; stroke-linecap: butt; stroke-dashoffset: 0; stroke-linejoin: miter; stroke-miterlimit: 4; fill: rgb(0,0,0); fill-rule: nonzero; opacity: 1;"  paint-order="stroke"  transform=" translate(-521.1742418695842, -403.99999999999994)" d="M 793.4 226.7 C 746.1 167 678.4 129.39999999999998 602.8 120.6 C 592 119.3 581 118.69999999999999 570.0999999999999 118.69999999999999 C 519.6999999999999 118.69999999999999 470.7999999999999 131.89999999999998 427.4999999999999 156.89999999999998 C 425.89999999999986 154.09999999999997 423.2999999999999 151.89999999999998 419.9999999999999 150.79999999999998 L 403.9999999999999 145.39999999999998 L 398.4999999999999 129.49999999999997 C 396.5999999999999 123.89999999999998 391.2999999999999 120.19999999999997 385.39999999999986 120.19999999999997 C 379.4999999999999 120.19999999999997 374.1999999999999 123.99999999999997 372.29999999999984 129.59999999999997 L 366.89999999999986 145.59999999999997 L 350.9999999999999 151.09999999999997 C 345.39999999999986 152.99999999999997 341.6999999999999 158.29999999999995 341.6999999999999 164.19999999999996 C 341.6999999999999 170.09999999999997 345.4999999999999 175.39999999999995 351.09999999999985 177.29999999999995 L 367.09999999999985 182.69999999999996 L 372.49999999999983 198.49999999999997 C 361.59999999999985 208.89999999999998 351.6999999999998 220.19999999999996 342.59999999999985 232.2 L 331.29999999999984 228.29999999999998 L 326.99999999999983 215.79999999999998 C 325.1999999999998 210.49999999999997 320.1999999999998 206.89999999999998 314.49999999999983 206.89999999999998 C 308.8999999999998 206.89999999999998 303.79999999999984 210.49999999999997 301.99999999999983 215.79999999999998 L 297.6999999999998 228.29999999999998 L 285.1999999999998 232.6 C 279.8999999999998 234.4 276.29999999999984 239.5 276.29999999999984 245.1 C 276.29999999999984 250.7 279.89999999999986 255.7 285.1999999999998 257.6 L 297.6999999999998 261.90000000000003 L 301.99999999999983 274.40000000000003 C 303.49999999999983 278.90000000000003 307.29999999999984 282.1 311.79999999999984 283.00000000000006 C 305.6999999999998 296.00000000000006 300.59999999999985 309.40000000000003 296.49999999999983 323.20000000000005 C 296.49999999999983 323.20000000000005 296.49999999999983 323.20000000000005 296.49999999999983 323.20000000000005 C 295.99999999999983 325.00000000000006 294.6999999999998 326.40000000000003 292.8999999999998 326.90000000000003 C 292.8999999999998 326.90000000000003 292.8999999999998 326.90000000000003 292.8999999999998 326.90000000000003 C 289.2999999999998 328.00000000000006 285.7999999999998 329.6 282.5999999999998 331.8 C 277.8999999999998 335 273.6999999999998 339.3 270.5999999999998 344.40000000000003 C 267.5999999999998 349.3 265.3999999999998 355.00000000000006 264.3999999999998 361.00000000000006 L 264.2999999999998 361.40000000000003 C 264.19999999999976 361.90000000000003 264.0999999999998 362.50000000000006 263.9999999999998 363.1 C 263.9999999999998 363.1 263.39999999999975 367.8 263.19999999999976 369.1 L 262.89999999999975 371.70000000000005 C 262.69999999999976 373.1 262.7999999999997 374.40000000000003 263.19999999999976 375.70000000000005 C 263.59999999999974 377.20000000000005 263.2999999999998 378.70000000000005 262.2999999999998 379.90000000000003 L 262.2999999999998 379.90000000000003 C 262.2999999999998 379.90000000000003 252.0999999999998 385.50000000000006 247.99999999999977 389.3 C 243.09999999999977 393.8 238.69999999999976 398.90000000000003 234.79999999999978 404.3 C 224.79999999999978 418.3 216.99999999999977 434.3 212.39999999999978 450.8 C 208.29999999999978 465.5 206.09999999999977 481.1 205.99999999999977 497.2 C 205.99999999999977 501.7 206.09999999999977 506.2 206.49999999999977 510.59999999999997 C 206.59999999999977 512.8 206.79999999999978 515 206.89999999999978 517.3 C 206.99999999999977 518.5999999999999 206.99999999999977 519.9 206.99999999999977 521.1999999999999 C 206.99999999999977 522.0999999999999 206.99999999999977 522.9 207.09999999999977 523.8 C 207.29999999999976 532.5999999999999 206.89999999999978 541.4 206.09999999999977 550.0999999999999 C 204.39999999999978 567.8999999999999 200.59999999999977 585.0999999999999 194.89999999999978 601.1999999999999 C 193.79999999999978 604.4999999999999 187.29999999999978 621.4 187.29999999999978 624.6999999999999 C 187.29999999999978 626.4 187.79999999999978 627.9999999999999 188.6999999999998 629.4999999999999 L 189.1999999999998 630.3999999999999 C 189.29999999999978 630.4999999999999 189.29999999999978 630.5999999999999 189.39999999999978 630.7999999999998 C 193.89999999999978 638.1999999999998 200.79999999999978 644.4999999999999 209.89999999999978 649.4999999999999 C 216.89999999999978 653.2999999999998 224.89999999999978 656.2999999999998 233.59999999999977 658.4999999999999 C 240.99999999999977 660.2999999999998 248.89999999999978 661.5999999999999 257.89999999999975 662.3999999999999 C 263.4999999999998 662.8999999999999 269.2999999999997 663.0999999999999 274.9999999999998 663.0999999999999 C 277.39999999999975 663.0999999999999 279.7999999999998 663.0999999999999 282.0999999999998 662.9999999999999 C 289.7999999999998 662.7999999999998 297.8999999999998 662.1999999999999 306.1999999999998 661.0999999999999 C 322.29999999999984 659.0999999999999 338.1999999999998 655.8 353.3999999999998 651.1999999999999 C 361.7999999999998 648.5999999999999 369.1999999999998 645.9 375.99999999999983 642.9 C 383.8999999999998 639.4 391.09999999999985 635.6 397.3999999999998 631.4 C 405.3999999999998 625.9 411.1999999999998 620.1999999999999 415.0999999999998 614.1 L 415.5999999999998 613.4 C 416.4999999999998 612 417.0999999999998 610.3 417.1999999999998 608.6 C 417.29999999999984 606.2 416.5999999999998 603.8000000000001 415.1999999999998 601.9 C 414.6999999999998 601.1999999999999 414.0999999999998 600.5 413.6999999999998 599.6999999999999 C 412.79999999999984 598.1999999999999 408.49999999999983 591.0999999999999 407.49999999999983 589.3 C 401.59999999999985 577.9 397.79999999999984 565.1999999999999 396.29999999999984 551.5999999999999 C 395.59999999999985 545.0999999999999 395.29999999999984 538.4999999999999 395.59999999999985 531.8999999999999 C 395.59999999999985 531.2999999999998 395.6999999999999 530.6999999999998 395.6999999999999 530.0999999999999 C 395.7999999999999 528.9999999999999 395.7999999999999 527.9999999999999 395.89999999999986 527.0999999999999 C 396.09999999999985 525.3999999999999 396.1999999999999 523.8 396.39999999999986 522.0999999999999 C 396.59999999999985 520.4999999999999 396.89999999999986 518.8 397.09999999999985 517.1999999999999 L 397.1999999999999 516.6999999999999 C 397.39999999999986 515.0999999999999 397.6999999999999 513.6999999999999 397.89999999999986 512.1999999999999 C 398.39999999999986 508.79999999999995 398.6999999999999 505.29999999999995 398.9999999999999 501.99999999999994 C 399.0999999999999 500.09999999999997 399.1999999999999 498.3999999999999 399.2999999999999 496.79999999999995 C 399.2999999999999 496.29999999999995 399.2999999999999 495.9 399.2999999999999 495.4 C 399.2999999999999 494.29999999999995 399.3999999999999 493.09999999999997 399.3999999999999 491.79999999999995 C 398.99999999999994 466.49999999999994 393.19999999999993 440.29999999999995 380.5999999999999 418.29999999999995 C 377.8999999999999 413.59999999999997 374.9999999999999 409.09999999999997 371.7999999999999 404.79999999999995 C 373.1999999999999 405.29999999999995 374.6999999999999 405.59999999999997 376.1999999999999 405.59999999999997 C 376.9999999999999 405.59999999999997 377.7999999999999 405.49999999999994 378.4999999999999 405.4 C 388.89999999999986 403.59999999999997 399.89999999999986 401.9 411.0999999999999 400.2 L 439.7999999999999 608.4 C 439.3999999999999 608.5 438.9999999999999 608.6 438.5999999999999 608.6999999999999 C 438.3999999999999 608.8 438.19999999999993 608.8 437.9999999999999 608.9 C 431.89999999999986 610.9 426.7999999999999 615.1 423.6999999999999 620.6999999999999 C 417.09999999999985 632.8 421.59999999999985 647.9999999999999 433.6999999999999 654.5999999999999 C 465.7999999999999 672.0999999999999 500.6999999999999 683.0999999999999 537.2999999999998 687.3999999999999 C 541.2999999999998 687.8999999999999 545.2999999999998 688.1999999999998 549.2999999999998 688.4999999999999 C 556.2999999999998 688.9999999999999 563.3999999999999 689.2999999999998 570.3999999999999 689.2999999999998 C 602.2999999999998 689.2999999999998 633.6999999999998 683.9999999999999 663.6999999999998 673.4999999999999 C 693.7999999999998 662.9999999999999 721.8999999999999 647.5999999999999 746.9999999999998 627.5999999999999 C 806.6999999999998 580.3 844.2999999999997 512.5999999999999 853.0999999999998 436.9999999999999 C 861.9 360.9 840.7 286.4 793.4 226.7 z M 457.3 269.5 L 454 268.4 L 445.5 243.79999999999998 C 443.3 237.49999999999997 437.6 233.39999999999998 430.9 233.39999999999998 C 424.29999999999995 233.39999999999998 418.4 237.59999999999997 416.29999999999995 243.89999999999998 L 407.9 268.5 L 383.29999999999995 277 C 376.99999999999994 279.2 372.9 284.9 372.9 291.6 C 372.9 298.30000000000007 377 304 383.4 306.20000000000005 L 408 314.6 L 411.4 324.5 C 395.7 344 380.5 363.8 365.7 384 C 363.5 387 362.7 390.7 363.4 394.2 C 362.79999999999995 393.5 363.29999999999995 388.59999999999997 363.29999999999995 386.5 C 363.29999999999995 385.8 363.29999999999995 385.1 363.29999999999995 384.4 C 363.29999999999995 384.09999999999997 363.29999999999995 383.79999999999995 363.29999999999995 383.5 C 363.29999999999995 383.1 363.29999999999995 382.5 363.4 381.5 L 363.5 379.2 C 363.5 378.59999999999997 363.6 377.9 363.6 377.09999999999997 L 363.6 376.49999999999994 C 363.6 375.29999999999995 363.6 373.8999999999999 363.5 372.29999999999995 C 363.4 370.69999999999993 363.2 369.29999999999995 363 368.19999999999993 L 362.9 367.5999999999999 C 362.79999999999995 366.5999999999999 362.59999999999997 365.69999999999993 362.4 365.19999999999993 L 362.4 365.0999999999999 C 362.4 364.9999999999999 362.2 364.19999999999993 362.2 364.19999999999993 C 362.09999999999997 363.69999999999993 362 363.19999999999993 361.8 362.69999999999993 C 361.8 362.5999999999999 361.7 362.3999999999999 361.7 362.29999999999995 L 360.9 359.99999999999994 C 360.7 359.29999999999995 360.5 358.79999999999995 360.29999999999995 358.49999999999994 L 359.79999999999995 357.09999999999997 C 359.49999999999994 356.2 359.19999999999993 355.49999999999994 358.9 354.99999999999994 C 358.9 354.8999999999999 358.79999999999995 354.79999999999995 358.79999999999995 354.69999999999993 C 358.69999999999993 354.5999999999999 358.49999999999994 354.0999999999999 358.49999999999994 354.0999999999999 C 358.29999999999995 353.5999999999999 357.8999999999999 352.7999999999999 357.3999999999999 351.8999999999999 L 356.69999999999993 350.69999999999993 C 356.49999999999994 350.19999999999993 356.0999999999999 349.5999999999999 355.5999999999999 348.79999999999995 C 353.0999999999999 344.9 350.0999999999999 341.49999999999994 346.69999999999993 338.49999999999994 C 345.8999999999999 337.79999999999995 345.19999999999993 337.29999999999995 344.49999999999994 336.79999999999995 C 344.69999999999993 336.4 344.79999999999995 335.99999999999994 344.99999999999994 335.59999999999997 C 373.09999999999997 242.19999999999996 455.29999999999995 176.59999999999997 551.6999999999999 169.39999999999998 C 519.1 201.4 487.6 234.8 457.3 269.5 z M 622.7 174.7 C 674.5 186.6 720.7 215.7 754.1 257.79999999999995 C 783.6 294.99999999999994 800.8000000000001 339.19999999999993 804.4 385.49999999999994 C 804.1 384.99999999999994 803.8 384.3999999999999 803.4 383.8999999999999 C 748.7 309.6 687.9 239.3 622.7 174.7 z M 803.5 430.7 C 797.2 485.09999999999997 772.3 535.1 733.1 572.8 L 757 399.4 C 768.5 401.09999999999997 779.8 402.9 790.6 404.7 C 791.4 404.8 792.1 404.9 792.9 404.9 C 797.5 404.9 801.6 402.59999999999997 804 398.59999999999997 C 804.4 397.99999999999994 804.7 397.29999999999995 805 396.7 C 805.2 408 804.8 419.4 803.5 430.7 z" stroke-linecap="round" />
</g>
		<g transform="matrix(0.3721228867724121 0 0 0.3721228867724121 23.378902479155613 40.53045161043343)"  >
<path style="stroke: none; stroke-width: 1; stroke-dasharray: none; stroke-linecap: butt; stroke-dashoffset: 0; stroke-linejoin: miter; stroke-miterlimit: 4; fill: rgb(255,218,138); fill-rule: nonzero; opacity: 1;"  paint-order="stroke"  transform=" translate(-584, -512.9168472328378)" d="M 457.6 610.2 C 484.1 624.6 512.8000000000001 633.7 543 637.2 C 605.3 644.4000000000001 666.7 626.9000000000001 715.9 587.8000000000001 C 717.8 586.3000000000001 719.6999999999999 584.8000000000001 721.5 583.2 L 747 398.1 C 638.6 383.3 529.3 383.40000000000003 421 398.20000000000005 L 449.8 607.5 C 452.5 607.9 455.1 608.8 457.6 610.2 z M 592.1 427 C 592.1 424.3 594.4 422.1 597.1 422.1 C 597.1 422.1 597.1 422.1 597.1 422.1 L 601.2 422.1 C 615.5 422.20000000000005 629 427.90000000000003 638.1 437.8 C 646.4 446.8 650.4 458.3 649.5 470.3 L 649.3 474 C 649.0999999999999 476.6 646.9 478.7 644.3 478.7 C 644.3 478.7 644.1999999999999 478.7 644.1999999999999 478.7 C 628.4 478.2 612.4 478 596.5999999999999 477.9 C 595.3 477.9 593.9999999999999 477.4 593.0999999999999 476.4 C 592.1999999999999 475.4 591.6999999999999 474.2 591.6999999999999 472.79999999999995 L 592.1 427 z M 591.2 494.3 C 591.2 491.6 593.5 489.40000000000003 596.2 489.40000000000003 C 596.2 489.40000000000003 596.2 489.40000000000003 596.2 489.40000000000003 C 611.7 489.50000000000006 627.4000000000001 489.8 642.9000000000001 490.20000000000005 C 644.3000000000001 490.20000000000005 645.5000000000001 490.80000000000007 646.5000000000001 491.80000000000007 C 647.5000000000001 492.80000000000007 647.9000000000001 494.1000000000001 647.8000000000001 495.50000000000006 L 644.7 541.2 C 644.5 543.8000000000001 642.3000000000001 545.9000000000001 639.7 545.9000000000001 C 639.7 545.9000000000001 639.6 545.9000000000001 639.6 545.9000000000001 C 625 545.5000000000001 610.2 545.2 595.6 545.1000000000001 C 594.3000000000001 545.1000000000001 593 544.6000000000001 592.1 543.6000000000001 C 591.2 542.6000000000001 590.7 541.4000000000001 590.7 540.0000000000001 L 591.2 494.3 z M 578.5 540 C 578.5 541.3 578 542.6 577.1 543.6 C 576.2 544.6 574.9 545.1 573.6 545.1 C 559 545.2 544.2 545.4 529.6 545.9 C 529.6 545.9 529.5 545.9 529.5 545.9 C 526.9 545.9 524.7 543.9 524.5 541.1999999999999 L 521.4 495.49999999999994 C 521.3 494.09999999999997 521.8 492.79999999999995 522.6999999999999 491.79999999999995 C 523.5999999999999 490.79999999999995 524.9 490.19999999999993 526.3 490.19999999999993 C 541.8 489.79999999999995 557.5 489.49999999999994 573 489.3999999999999 C 575.8 489.3999999999999 578 491.5999999999999 578 494.2999999999999 L 578.5 540 z M 530.9 437.8 C 540 427.90000000000003 553.5 422.2 567.8 422.1 L 571.9 422.1 C 571.9 422.1 571.9 422.1 571.9 422.1 C 574.6 422.1 576.9 424.3 576.9 427 L 577.5 472.7 C 577.5 474 577 475.3 576.1 476.3 C 575.2 477.3 573.9 477.8 572.6 477.8 C 556.8000000000001 477.90000000000003 540.7 478.2 525 478.6 C 525 478.6 524.9 478.6 524.9 478.6 C 522.3 478.6 520.1 476.6 519.9 473.90000000000003 L 519.6999999999999 470.20000000000005 C 518.6 458.3 522.7 446.8 530.9 437.8 z" stroke-linecap="round" />
</g>
		<g transform="matrix(0.3721228867724121 0 0 0.3721228867724121 20.209095720300184 -0.0829817357990521)"  >
<path style="stroke: none; stroke-width: 1; stroke-dasharray: none; stroke-linecap: butt; stroke-dashoffset: 0; stroke-linejoin: miter; stroke-miterlimit: 4; fill: rgb(196,146,101); fill-rule: nonzero; opacity: 1;"  paint-order="stroke"  transform=" translate(-575.4818279887361, -403.7770044822591)" d="M 785.5 232.9 C 739.9 175.3 674.6 139 601.6 130.5 C 599.6 130.3 597.7 130.1 595.7 129.9 C 595 129.8 594.4000000000001 129.8 593.7 129.70000000000002 C 592.4000000000001 129.60000000000002 591.1 129.50000000000003 589.8000000000001 129.4 C 589.0000000000001 129.3 588.2 129.3 587.4000000000001 129.20000000000002 C 586.2 129.10000000000002 585.1000000000001 129.10000000000002 583.9000000000001 129.00000000000003 C 583.0000000000001 129.00000000000003 582.2 128.90000000000003 581.3000000000001 128.90000000000003 C 580.2 128.90000000000003 579.1 128.80000000000004 578.0000000000001 128.80000000000004 C 577.1000000000001 128.80000000000004 576.2000000000002 128.80000000000004 575.3000000000001 128.70000000000005 C 574.3000000000001 128.70000000000005 573.2 128.70000000000005 572.2 128.70000000000005 C 571.3000000000001 128.70000000000005 570.3000000000001 128.70000000000005 569.4000000000001 128.70000000000005 C 568.4000000000001 128.70000000000005 567.4000000000001 128.70000000000005 566.4000000000001 128.70000000000005 C 565.4000000000001 128.70000000000005 564.5000000000001 128.70000000000005 563.5000000000001 128.80000000000004 C 562.5000000000001 128.80000000000004 561.5000000000001 128.90000000000003 560.6000000000001 128.90000000000003 C 559.6000000000001 128.90000000000003 558.6000000000001 129.00000000000003 557.6000000000001 129.00000000000003 C 556.7000000000002 129.00000000000003 555.7000000000002 129.10000000000002 554.8000000000002 129.10000000000002 C 553.8000000000002 129.20000000000002 552.8000000000002 129.20000000000002 551.7000000000002 129.3 C 550.8000000000002 129.4 549.9000000000002 129.4 549.0000000000001 129.5 C 547.9000000000001 129.6 546.9000000000001 129.7 545.8000000000001 129.8 C 545.0000000000001 129.9 544.1 130 543.3000000000001 130 C 542.2 130.1 541.1 130.2 540.0000000000001 130.3 C 539.3000000000001 130.4 538.5000000000001 130.5 537.8000000000001 130.60000000000002 C 536.6 130.70000000000002 535.4000000000001 130.90000000000003 534.2 131.00000000000003 C 533.7 131.10000000000002 533.3000000000001 131.10000000000002 532.8000000000001 131.20000000000002 C 529.5000000000001 131.60000000000002 526.2 132.20000000000002 523.0000000000001 132.70000000000002 C 519.6000000000001 133.3 516.1000000000001 134.00000000000003 512.7000000000002 134.70000000000002 C 512.4000000000002 134.8 512.2000000000002 134.8 511.90000000000015 134.9 C 510.40000000000015 135.20000000000002 508.90000000000015 135.6 507.40000000000015 135.9 C 507.00000000000017 136 506.60000000000014 136.1 506.3000000000001 136.20000000000002 C 504.90000000000015 136.50000000000003 503.40000000000015 136.9 502.0000000000001 137.3 C 501.60000000000014 137.4 501.2000000000001 137.5 500.7000000000001 137.60000000000002 C 499.3000000000001 138.00000000000003 497.9000000000001 138.40000000000003 496.4000000000001 138.70000000000002 C 496.0000000000001 138.8 495.6000000000001 138.9 495.2000000000001 139.00000000000003 C 493.8000000000001 139.40000000000003 492.4000000000001 139.80000000000004 490.9000000000001 140.20000000000002 C 490.5000000000001 140.3 490.1000000000001 140.4 489.7000000000001 140.60000000000002 C 488.3000000000001 141.00000000000003 486.8000000000001 141.50000000000003 485.4000000000001 142.00000000000003 C 485.1000000000001 142.10000000000002 484.7000000000001 142.20000000000002 484.4000000000001 142.30000000000004 C 482.9000000000001 142.80000000000004 481.4000000000001 143.30000000000004 480.0000000000001 143.80000000000004 C 479.7000000000001 143.90000000000003 479.5000000000001 144.00000000000003 479.2000000000001 144.10000000000005 C 477.7000000000001 144.60000000000005 476.1000000000001 145.20000000000005 474.6000000000001 145.80000000000004 C 474.4000000000001 145.90000000000003 474.30000000000007 145.90000000000003 474.1000000000001 146.00000000000003 C 458.4000000000001 151.80000000000004 443.30000000000007 159.10000000000002 428.80000000000007 167.70000000000002 C 427.6000000000001 172.00000000000003 424.4000000000001 175.50000000000003 420.00000000000006 177.00000000000003 L 408.90000000000003 180.80000000000004 L 408.90000000000003 180.80000000000004 C 408.70000000000005 180.90000000000003 408.6 181.10000000000005 408.40000000000003 181.20000000000005 C 406.70000000000005 182.40000000000003 405.1 183.60000000000005 403.50000000000006 184.90000000000003 C 403.40000000000003 185.00000000000003 403.30000000000007 185.00000000000003 403.20000000000005 185.10000000000002 L 403.20000000000005 185.10000000000002 L 398.6 198.50000000000003 C 396.70000000000005 204.10000000000002 391.40000000000003 207.90000000000003 385.5 207.90000000000003 C 383.1 207.90000000000003 380.8 207.30000000000004 378.8 206.10000000000002 C 372.5 212.20000000000002 366.5 218.60000000000002 360.8 225.3 C 360.7 225.4 360.6 225.5 360.5 225.60000000000002 C 359.5 226.8 358.5 228.00000000000003 357.4 229.3 C 357.2 229.5 357.09999999999997 229.70000000000002 356.9 229.9 C 355.9 231.1 354.9 232.3 354 233.5 C 353.8 233.7 353.7 233.9 353.5 234.1 C 352.5 235.29999999999998 351.5 236.6 350.6 237.9 C 350.6 237.9 350.5 238 350.5 238 C 350.5 238 350.5 238 350.5 238 C 351.8 240.1 352.5 242.5 352.5 245 C 352.5 250.6 348.9 255.7 343.6 257.5 L 335.20000000000005 260.4 C 328.40000000000003 271.4 322.50000000000006 283 317.30000000000007 294.9 C 317.30000000000007 294.9 317.30000000000007 294.9 317.30000000000007 294.9 C 316.6000000000001 296.4 316.00000000000006 298 315.4000000000001 299.5 C 315.30000000000007 299.7 315.30000000000007 299.8 315.2000000000001 300 C 315.2000000000001 300 315.2000000000001 300 315.2000000000001 300 C 311.7000000000001 308.5 308.7000000000001 317.2 306.1000000000001 326 C 306.6000000000001 326 307.1000000000001 326.1 307.6000000000001 326.1 C 310.1000000000001 326.3 312.6000000000001 326.70000000000005 315.1000000000001 327.1 C 320.1000000000001 327.90000000000003 325.00000000000006 329.20000000000005 329.9000000000001 330.70000000000005 C 331.1000000000001 331.1 332.30000000000007 331.50000000000006 333.6000000000001 332.00000000000006 C 334.2000000000001 332.20000000000005 334.80000000000007 332.50000000000006 335.4000000000001 332.70000000000005 C 349.80000000000007 285.00000000000006 377.5000000000001 244.60000000000005 413.5000000000001 214.80000000000004 C 418.7000000000001 210.50000000000003 424.0000000000001 206.50000000000003 429.4000000000001 202.70000000000005 C 429.4000000000001 202.70000000000005 429.4000000000001 202.70000000000005 429.4000000000001 202.70000000000005 C 430.7000000000001 201.80000000000004 432.1000000000001 200.90000000000003 433.4000000000001 200.00000000000006 C 433.6000000000001 199.90000000000006 433.80000000000007 199.80000000000007 433.9000000000001 199.70000000000005 C 435.1000000000001 198.90000000000003 436.30000000000007 198.10000000000005 437.5000000000001 197.40000000000003 C 437.8000000000001 197.20000000000005 438.0000000000001 197.10000000000002 438.3000000000001 196.90000000000003 C 439.40000000000015 196.20000000000005 440.5000000000001 195.50000000000003 441.60000000000014 194.80000000000004 C 441.90000000000015 194.60000000000005 442.3000000000001 194.40000000000003 442.60000000000014 194.20000000000005 C 443.70000000000016 193.60000000000005 444.70000000000016 192.90000000000003 445.8000000000001 192.30000000000004 C 446.2000000000001 192.10000000000005 446.5000000000001 191.90000000000003 446.90000000000015 191.70000000000005 C 447.90000000000015 191.10000000000005 449.00000000000017 190.50000000000006 450.00000000000017 189.90000000000003 C 450.40000000000015 189.70000000000005 450.8000000000002 189.50000000000003 451.20000000000016 189.20000000000005 C 452.20000000000016 188.60000000000005 453.3000000000002 188.10000000000005 454.3000000000002 187.50000000000006 C 454.70000000000016 187.30000000000007 455.1000000000002 187.10000000000005 455.50000000000017 186.80000000000007 C 456.50000000000017 186.30000000000007 457.6000000000002 185.70000000000007 458.6000000000002 185.20000000000007 C 459.00000000000017 185.00000000000009 459.4000000000002 184.80000000000007 459.9000000000002 184.60000000000008 C 460.9000000000002 184.10000000000008 462.0000000000002 183.60000000000008 463.1000000000002 183.10000000000008 C 463.50000000000017 182.9000000000001 463.9000000000002 182.70000000000007 464.4000000000002 182.50000000000009 C 465.5000000000002 182.00000000000009 466.6000000000002 181.50000000000009 467.7000000000002 181.00000000000009 C 468.1000000000002 180.8000000000001 468.5000000000002 180.60000000000008 468.9000000000002 180.4000000000001 C 470.0000000000002 179.9000000000001 471.2000000000002 179.4000000000001 472.3000000000002 178.9000000000001 C 472.70000000000016 178.7000000000001 473.00000000000017 178.60000000000008 473.4000000000002 178.4000000000001 C 474.6000000000002 177.9000000000001 475.9000000000002 177.4000000000001 477.1000000000002 176.9000000000001 C 477.4000000000002 176.8000000000001 477.7000000000002 176.7000000000001 477.9000000000002 176.60000000000008 C 479.4000000000002 176.00000000000009 480.8000000000002 175.4000000000001 482.3000000000002 174.9000000000001 C 482.4000000000002 174.9000000000001 482.4000000000002 174.9000000000001 482.50000000000017 174.8000000000001 C 485.6000000000002 173.6000000000001 488.8000000000002 172.50000000000009 492.00000000000017 171.4000000000001 C 492.1000000000002 171.4000000000001 492.3000000000002 171.3000000000001 492.40000000000015 171.3000000000001 C 493.8000000000001 170.8000000000001 495.20000000000016 170.4000000000001 496.60000000000014 169.9000000000001 C 497.0000000000001 169.8000000000001 497.40000000000015 169.60000000000008 497.90000000000015 169.50000000000009 C 499.00000000000017 169.20000000000007 500.20000000000016 168.8000000000001 501.3000000000001 168.50000000000009 C 501.8000000000001 168.3000000000001 502.40000000000015 168.20000000000007 502.90000000000015 168.10000000000008 C 503.90000000000015 167.80000000000007 505.00000000000017 167.50000000000009 506.00000000000017 167.20000000000007 C 506.6000000000002 167.00000000000009 507.20000000000016 166.90000000000006 507.8000000000002 166.70000000000007 C 508.8000000000002 166.40000000000006 509.8000000000002 166.20000000000007 510.8000000000002 165.90000000000006 C 511.4000000000002 165.70000000000007 512.1000000000001 165.60000000000005 512.7000000000002 165.40000000000006 C 513.7000000000002 165.20000000000007 514.6000000000001 164.90000000000006 515.6000000000001 164.70000000000007 C 516.3000000000002 164.60000000000008 516.9000000000001 164.40000000000006 517.6000000000001 164.30000000000007 C 518.5000000000001 164.10000000000008 519.5000000000001 163.90000000000006 520.4000000000001 163.70000000000007 C 521.1000000000001 163.60000000000008 521.8000000000001 163.40000000000006 522.5000000000001 163.30000000000007 C 523.4000000000001 163.10000000000008 524.4000000000001 162.90000000000006 525.3000000000001 162.80000000000007 C 526.0000000000001 162.70000000000007 526.7 162.50000000000006 527.4000000000001 162.40000000000006 C 528.3000000000001 162.20000000000007 529.3000000000001 162.10000000000005 530.2 161.90000000000006 C 530.9000000000001 161.80000000000007 531.6 161.70000000000007 532.3000000000001 161.60000000000005 C 533.2 161.50000000000006 534.2 161.30000000000004 535.1 161.20000000000005 C 535.8000000000001 161.10000000000005 536.5 161.00000000000006 537.2 160.90000000000003 C 538.1 160.80000000000004 539.1 160.70000000000005 540.1 160.50000000000003 C 540.8000000000001 160.40000000000003 541.5 160.30000000000004 542.2 160.30000000000004 C 543.2 160.20000000000005 544.1 160.10000000000005 545.1 160.00000000000003 C 545.8000000000001 159.90000000000003 546.5 159.90000000000003 547.2 159.80000000000004 C 548.2 159.70000000000005 549.2 159.60000000000005 550.2 159.60000000000005 C 550.9000000000001 159.50000000000006 551.5 159.50000000000006 552.2 159.40000000000006 C 553.3000000000001 159.30000000000007 554.4000000000001 159.30000000000007 555.6 159.20000000000007 C 556.2 159.20000000000007 556.7 159.10000000000008 557.3000000000001 159.10000000000008 C 559.0000000000001 159.00000000000009 560.7 159.00000000000009 562.3000000000001 158.9000000000001 C 566.6 154.8000000000001 570.8000000000001 150.7000000000001 575.2 146.60000000000008 L 575.2 146.60000000000008 C 580.3000000000001 141.80000000000007 588.2 141.80000000000007 593.3000000000001 146.60000000000008 C 598.7 151.70000000000007 604.1 156.9000000000001 609.4000000000001 162.00000000000009 C 669.7 171.8000000000001 723.4000000000001 203.4000000000001 761.7 251.7000000000001 C 802.4000000000001 303.0000000000001 820.7 367.10000000000014 813.2 432.0000000000001 C 806.1 493.10000000000014 777 548.3000000000001 730.7 588.5000000000001 C 728.8000000000001 590.1000000000001 726.9000000000001 591.7000000000002 725 593.3000000000001 C 724 594.1 723 595.0000000000001 721.9 595.8000000000001 C 721 596.5000000000001 720.1999999999999 597.1 719.3 597.8000000000001 C 668.4 637.1 605.4 654.6 541.5999999999999 647.2 C 510.0999999999999 643.6 480.0999999999999 634.1 452.4999999999999 619 C 451.9999999999999 618.7 451.4999999999999 618.5 450.9999999999999 618.3 C 449.2999999999999 617.5999999999999 447.5999999999999 617.1999999999999 445.7999999999999 617.1999999999999 C 445.5999999999999 617.1999999999999 445.4999999999999 617.1999999999999 445.2999999999999 617.1999999999999 C 443.8999999999999 617.1999999999999 442.3999999999999 617.4 440.9999999999999 617.8 C 440.89999999999986 617.8 440.7999999999999 617.9 440.7999999999999 617.9 C 437.0999999999999 619.1 433.9999999999999 621.6 432.0999999999999 625 C 428.0999999999999 632.3 430.7999999999999 641.4 438.0999999999999 645.4 C 469.0999999999999 662.3 502.69999999999993 672.9 538.0999999999999 677 C 541.8999999999999 677.4 545.8 677.8 549.6999999999999 678.1 C 618.4999999999999 683.2 686.3 662.3000000000001 740.5 619.3000000000001 C 798.1 573.7 834.4 508.4000000000001 842.9 435.4000000000001 C 851.6 362.4 831.2 290.5 785.5 232.9 z" stroke-linecap="round" />
</g>
		<g transform="matrix(0.3721228867724121 0 0 0.3721228867724121 -81.46672086897146 33.397360752697864)"  >
<path style="stroke: none; stroke-width: 1; stroke-dasharray: none; stroke-linecap: butt; stroke-dashoffset: 0; stroke-linejoin: miter; stroke-miterlimit: 4; fill: rgb(255,218,138); fill-rule: nonzero; opacity: 1;"  paint-order="stroke"  transform=" translate(-302.25, -493.74820399349284)" d="M 274.3 372.2 C 273.8 372.4 273.40000000000003 372.59999999999997 272.90000000000003 372.8 C 273.00000000000006 372.1 273.1 371.5 273.20000000000005 370.8 C 273.20000000000005 370.6 273.20000000000005 370.40000000000003 273.30000000000007 370.2 C 273.50000000000006 368.9 273.70000000000005 367.5 273.80000000000007 366.2 C 273.9000000000001 365.5 274.00000000000006 364.9 274.1000000000001 364.2 C 274.2000000000001 363.5 274.30000000000007 363 274.4000000000001 362.4 C 275.2000000000001 357.7 276.9000000000001 353.29999999999995 279.2000000000001 349.4 C 281.6000000000001 345.5 284.7000000000001 342.29999999999995 288.3000000000001 339.9 C 290.60000000000014 338.29999999999995 293.2000000000001 337.09999999999997 295.8000000000001 336.29999999999995 C 297.2000000000001 335.9 298.60000000000014 335.59999999999997 300.0000000000001 335.4 C 300.2000000000001 335.4 300.5000000000001 335.4 300.7000000000001 335.29999999999995 C 301.5000000000001 335.19999999999993 302.3000000000001 335.09999999999997 303.1000000000001 335.19999999999993 C 303.6000000000001 335.19999999999993 304.1000000000001 335.19999999999993 304.7000000000001 335.19999999999993 C 305.1000000000001 335.19999999999993 305.5000000000001 335.19999999999993 305.9000000000001 335.29999999999995 C 306.1000000000001 335.29999999999995 306.2000000000001 335.29999999999995 306.4000000000001 335.29999999999995 C 308.7000000000001 335.49999999999994 311.0000000000001 335.69999999999993 313.2000000000001 336.09999999999997 C 317.7000000000001 336.79999999999995 322.2000000000001 337.79999999999995 326.7000000000001 339.09999999999997 C 327.8000000000001 339.4 328.9000000000001 339.79999999999995 330.0000000000001 340.09999999999997 C 330.60000000000014 340.29999999999995 331.10000000000014 340.49999999999994 331.7000000000001 340.79999999999995 C 332.1000000000001 340.99999999999994 332.6000000000001 341.09999999999997 333.0000000000001 341.29999999999995 C 333.9000000000001 341.79999999999995 334.9000000000001 342.19999999999993 335.8000000000001 342.79999999999995 C 335.90000000000015 342.9 336.10000000000014 342.99999999999994 336.2000000000001 343.09999999999997 C 336.5000000000001 343.29999999999995 336.8000000000001 343.49999999999994 337.1000000000001 343.7 C 337.30000000000007 343.8 337.6000000000001 344 337.80000000000007 344.09999999999997 C 338.00000000000006 344.29999999999995 338.20000000000005 344.4 338.4000000000001 344.59999999999997 C 339.0000000000001 345.09999999999997 339.6000000000001 345.49999999999994 340.2000000000001 345.99999999999994 C 342.9000000000001 348.29999999999995 345.3000000000001 351.09999999999997 347.3000000000001 354.19999999999993 C 347.60000000000014 354.5999999999999 347.90000000000015 355.0999999999999 348.10000000000014 355.5999999999999 C 348.3000000000001 355.9999999999999 348.5000000000001 356.2999999999999 348.70000000000016 356.69999999999993 C 349.00000000000017 357.19999999999993 349.3000000000002 357.8999999999999 349.50000000000017 358.3999999999999 C 349.70000000000016 358.99999999999994 350.1000000000002 359.5999999999999 350.3000000000002 360.19999999999993 C 350.50000000000017 360.79999999999995 350.70000000000016 361.3999999999999 350.9000000000002 361.99999999999994 C 350.9000000000002 361.99999999999994 350.9000000000002 362.09999999999997 351.0000000000002 362.19999999999993 C 351.10000000000025 362.3999999999999 351.2000000000002 362.5999999999999 351.30000000000024 362.8999999999999 C 351.5000000000002 363.49999999999994 351.80000000000024 364.2999999999999 352.10000000000025 365.2999999999999 C 352.2000000000003 365.7999999999999 352.40000000000026 366.3999999999999 352.5000000000002 366.8999999999999 C 352.60000000000025 367.49999999999994 352.80000000000024 368.0999999999999 352.9000000000002 368.69999999999993 C 353.1000000000002 369.99999999999994 353.4000000000002 371.3999999999999 353.4000000000002 372.79999999999995 C 353.6000000000002 374.19999999999993 353.5000000000002 375.59999999999997 353.5000000000002 376.9 C 353.5000000000002 377.5 353.4000000000002 378.2 353.4000000000002 378.9 C 353.4000000000002 379.5 353.3000000000002 380.2 353.3000000000002 380.7 C 353.20000000000016 382.9 353.1000000000002 384.3 353.20000000000016 384 C 353.20000000000016 384.8 353.20000000000016 385.6 353.20000000000016 386.3 C 353.10000000000014 386.2 353.10000000000014 386.2 353.00000000000017 386.1 C 352.70000000000016 385.90000000000003 352.50000000000017 385.70000000000005 352.20000000000016 385.5 C 352.00000000000017 385.4 351.90000000000015 385.3 351.70000000000016 385.1 C 351.40000000000015 384.90000000000003 351.10000000000014 384.6 350.8000000000002 384.40000000000003 C 350.3000000000002 383.90000000000003 349.70000000000016 383.6 349.3000000000002 383.20000000000005 C 334.1000000000002 371.80000000000007 312.4000000000002 364.50000000000006 293.4000000000002 366.80000000000007 C 290.9000000000002 367.1000000000001 288.4000000000002 367.6000000000001 285.9000000000002 368.1000000000001 C 282 369.3 278.1 370.6 274.3 372.2 z M 287.2 409.1 C 288.4 402.1 290.2 395.20000000000005 293.09999999999997 388.6 C 293.59999999999997 387.40000000000003 294.09999999999997 386.3 294.7 385.1 C 296.3 381.90000000000003 298.09999999999997 378.90000000000003 300.09999999999997 376 C 299.4 376 298.7 376.1 297.9 376.1 C 297.7 376.1 297.4 376.1 297.2 376.20000000000005 C 297 376.20000000000005 296.8 376.20000000000005 296.59999999999997 376.20000000000005 C 295.2 376.30000000000007 293.7 376.6 292.29999999999995 376.80000000000007 C 286.69999999999993 377.70000000000005 280.99999999999994 379.50000000000006 275.59999999999997 382.1000000000001 C 275.4 382.2000000000001 275.29999999999995 382.2000000000001 275.09999999999997 382.30000000000007 C 275.09999999999997 382.30000000000007 275.09999999999997 382.30000000000007 275.09999999999997 382.30000000000007 C 273.2 383.20000000000005 271.49999999999994 384.6000000000001 270.09999999999997 386.20000000000005 C 268.79999999999995 387.70000000000005 267.49999999999994 389.30000000000007 266.29999999999995 391.1 C 263.4 395.3 260.9 399.90000000000003 258.69999999999993 404.70000000000005 C 257.8999999999999 406.40000000000003 257.19999999999993 408.1 256.49999999999994 409.80000000000007 C 261.8999999999999 409.20000000000005 267.3999999999999 408.9000000000001 272.79999999999995 408.80000000000007 C 277.5 408.7 282.4 408.8 287.2 409.1 z M 250.5 410.6 C 251.4 407.70000000000005 252.3 404.70000000000005 253.4 401.90000000000003 C 254.3 399.6 255.3 397.3 256.3 395.00000000000006 C 252.10000000000002 398.70000000000005 248.20000000000002 403.00000000000006 244.5 407.70000000000005 C 243.2 409.30000000000007 242 411.00000000000006 240.8 412.80000000000007 C 242.9 412.20000000000005 245.10000000000002 411.70000000000005 247.20000000000002 411.30000000000007 C 248.2 411 249.4 410.8 250.5 410.6 z M 308.3 379.3 C 306.3 381.5 304.40000000000003 383.8 302.7 386.40000000000003 C 301.5 388.20000000000005 300.3 390.20000000000005 299.2 392.20000000000005 C 296.4 397.50000000000006 294.3 403.30000000000007 292.8 409.40000000000003 C 297.40000000000003 409.70000000000005 301.90000000000003 410.1 306.5 410.6 C 317.7 411.8 328.9 413.70000000000005 339.9 416.1 C 344.29999999999995 417.1 348.7 418.20000000000005 353.09999999999997 419.40000000000003 C 352.7 417.70000000000005 352.4 415.90000000000003 351.9 414.20000000000005 C 350.7 409.40000000000003 349.2 404.70000000000005 347.29999999999995 400.1 C 344.79999999999995 393.90000000000003 342.19999999999993 388.90000000000003 336.59999999999997 384.90000000000003 C 332.99999999999994 382.3 327.49999999999994 379.6 321.99999999999994 377.8 C 317 376.3 312 375.3 308.3 379.3 z M 354.3 399.3 C 355.7 403.8 356.8 408.40000000000003 357.6 413 C 358 415.7 358.40000000000003 418.4 358.70000000000005 421 C 358.80000000000007 421 358.90000000000003 421.1 359.00000000000006 421.1 C 359.70000000000005 421.3 360.40000000000003 421.5 361.1000000000001 421.8 C 362.50000000000006 422.3 363.9000000000001 422.7 365.2000000000001 423.2 C 365.2000000000001 423.2 366.0000000000001 423.5 367.3000000000001 424.2 C 368.0000000000001 424.5 368.7000000000001 424.9 369.60000000000014 425.3 C 370.5000000000001 425.7 371.40000000000015 426.2 372.5000000000001 426.8 C 373.3000000000001 427.3 374.2000000000001 427.8 375.10000000000014 428.40000000000003 C 371.70000000000016 421.50000000000006 367.70000000000016 415.20000000000005 363.3000000000001 409.50000000000006 C 360.5 405.9 357.5 402.5 354.3 399.3 z M 245.3 433.7 C 246 429.5 246.8 425.3 247.70000000000002 421.09999999999997 C 245.4 421.59999999999997 243.10000000000002 422.2 240.9 422.99999999999994 C 238.8 423.69999999999993 236.70000000000002 424.59999999999997 234.9 425.69999999999993 C 233.6 426.49999999999994 232.4 427.3999999999999 231.6 428.29999999999995 C 230 431.49999999999994 228.5 434.9 227.1 438.4 C 227.7 438.09999999999997 228.4 437.9 229 437.7 C 234.5 435.7 239.9 434.5 245.3 433.7 z M 364.9 432.3 C 362.79999999999995 431.6 361.4 431.3 361.4 431.3 C 360.79999999999995 431.1 360.09999999999997 430.90000000000003 359.5 430.6 C 359.7 434.90000000000003 359.8 439.1 359.8 443.3 C 360.1 443.40000000000003 360.3 443.5 360.6 443.5 C 361.3 443.7 362 443.9 362.70000000000005 444.1 C 364.1 444.6 365.50000000000006 445 366.80000000000007 445.5 C 366.80000000000007 445.5 367.6000000000001 445.8 368.9000000000001 446.4 C 369.6000000000001 446.7 370.30000000000007 447.09999999999997 371.2000000000001 447.5 C 372.1000000000001 447.9 373.1000000000001 448.4 374.1000000000001 449 C 376.2000000000001 450.1 378.50000000000006 451.4 380.7000000000001 453 C 382.4000000000001 454.2 384.1000000000001 455.6 385.5000000000001 457.1 C 384.0000000000001 450.70000000000005 382.0000000000001 444.6 379.7000000000001 438.70000000000005 C 379.5000000000001 438.6 379.3000000000001 438.40000000000003 379.0000000000001 438.20000000000005 C 377.4000000000001 437.20000000000005 374.9000000000001 435.90000000000003 372.3000000000001 434.80000000000007 C 369.7 433.8 367 432.9 364.9 432.3 z M 383.2 461.7 C 383.3 461.8 383.09999999999997 461.7 382.7 461.4 C 382.3 461.09999999999997 381.59999999999997 460.7 380.8 460.2 C 379.2 459.2 376.7 458 374.1 457 C 371.5 456 368.70000000000005 455.1 366.6 454.5 C 364.5 453.9 363.1 453.5 363.1 453.5 C 361.90000000000003 453.1 360.70000000000005 452.7 359.5 452.4 C 359.4 454.59999999999997 359.3 456.79999999999995 359.1 458.9 C 358.40000000000003 469 357.3 479 355.6 488.9 C 356.6 478.9 356.90000000000003 468.79999999999995 356.8 458.79999999999995 C 356.8 456.4 356.7 453.99999999999994 356.6 451.49999999999994 C 355.6 451.19999999999993 354.6 450.99999999999994 353.70000000000005 450.69999999999993 C 348.00000000000006 449.19999999999993 342.30000000000007 447.99999999999994 336.40000000000003 446.8999999999999 C 324.8 444.7999999999999 313.00000000000006 443.2999999999999 301.20000000000005 442.2999999999999 C 297.1 441.9999999999999 293.00000000000006 441.6999999999999 288.90000000000003 441.5999999999999 C 288.8 445.4999999999999 288.90000000000003 449.3999999999999 289.00000000000006 453.2999999999999 C 289.40000000000003 463.9999999999999 290.30000000000007 474.5999999999999 291.50000000000006 485.1999999999999 C 289.6000000000001 474.7999999999999 287.90000000000003 464.1999999999999 286.70000000000005 453.4999999999999 C 286.30000000000007 449.4999999999999 286.00000000000006 445.4999999999999 285.70000000000005 441.4999999999999 C 279.1 441.2999999999999 272.40000000000003 441.2999999999999 265.80000000000007 441.5999999999999 C 259.9000000000001 441.8999999999999 254.00000000000006 442.2999999999999 248.30000000000007 443.19999999999993 C 247.80000000000007 443.29999999999995 247.30000000000007 443.3999999999999 246.80000000000007 443.3999999999999 C 246.30000000000007 446.2999999999999 245.80000000000007 449.0999999999999 245.30000000000007 451.99999999999994 C 243.60000000000008 463.09999999999997 242.60000000000008 474.29999999999995 242.40000000000006 485.59999999999997 C 241.80000000000007 474.4 242.10000000000005 462.99999999999994 243.00000000000006 451.7 C 243.20000000000005 449.09999999999997 243.50000000000006 446.5 243.80000000000007 443.9 C 239.60000000000008 444.7 235.40000000000006 445.7 231.50000000000006 447.09999999999997 C 229.40000000000006 447.9 227.40000000000006 448.79999999999995 225.60000000000005 449.9 C 224.30000000000004 450.7 223.10000000000005 451.7 222.20000000000005 452.59999999999997 C 218.20000000000005 466.59999999999997 216.20000000000005 481.59999999999997 216.10000000000005 496.79999999999995 C 216.10000000000005 500.99999999999994 216.20000000000005 505.29999999999995 216.50000000000006 509.49999999999994 C 216.60000000000005 511.79999999999995 216.80000000000007 514 216.90000000000006 516.3 C 217.00000000000006 518.5999999999999 217.00000000000006 520.8 217.10000000000005 523.0999999999999 C 217.30000000000004 532.1999999999999 216.90000000000006 541.3999999999999 216.00000000000006 550.5999999999999 C 214.30000000000007 568.5999999999999 210.50000000000006 586.6999999999999 204.30000000000007 604.0999999999999 C 211.50000000000006 598.6999999999999 219.30000000000007 594.8 227.10000000000008 591.5999999999999 C 230.20000000000007 590.3 233.30000000000007 589.1999999999999 236.4000000000001 588.1999999999999 C 239.2000000000001 582.3 241.60000000000008 576.1999999999999 243.60000000000008 569.9 C 246.00000000000009 562.1999999999999 247.80000000000007 554.1 248.9000000000001 545.9 C 250.00000000000009 537.6999999999999 250.60000000000008 529.4 250.9000000000001 521 C 251.2000000000001 512.6 251.2000000000001 504.2 251.10000000000008 495.8 C 251.9000000000001 504.1 252.70000000000007 512.5 253.20000000000007 520.9 C 253.70000000000007 529.3 253.90000000000006 537.8 253.50000000000009 546.3 C 253.10000000000008 554.8 252.10000000000008 563.4 250.20000000000007 571.9 C 249.30000000000007 576.3 248.10000000000008 580.6999999999999 246.70000000000007 585.1 C 248.40000000000006 584.6 250.20000000000007 584.2 251.90000000000006 583.8000000000001 C 268.30000000000007 580.0000000000001 284.80000000000007 578.0000000000001 301.4000000000001 577.3000000000001 C 300.6000000000001 569.3000000000001 300.5000000000001 561.2 300.9000000000001 553.3000000000001 C 301.4000000000001 542.7 302.80000000000007 532.3000000000001 304.6000000000001 522.1 C 304.30000000000007 532.5 304.50000000000006 542.9 305.50000000000006 553.1 C 306.30000000000007 561.3000000000001 307.70000000000005 569.4 309.80000000000007 577.1 C 324.30000000000007 576.9 338.9000000000001 577.6 353.30000000000007 579.6 C 355.1000000000001 579.9 357.00000000000006 580.1 358.80000000000007 580.4 C 356.9000000000001 577 355.20000000000005 573.4 353.6000000000001 569.8 C 350.6000000000001 562.6999999999999 348.30000000000007 555.1999999999999 346.80000000000007 547.5 C 345.30000000000007 539.8 344.70000000000005 532 344.6000000000001 524.3 C 344.50000000000006 516.5 344.9000000000001 508.79999999999995 345.6000000000001 501.09999999999997 C 345.7000000000001 516.5 347.00000000000006 531.9 351.30000000000007 546.1999999999999 C 353.4000000000001 553.3 356.30000000000007 560.0999999999999 359.80000000000007 566.4999999999999 C 363.00000000000006 572.1999999999999 366.70000000000005 577.5999999999999 370.70000000000005 582.6999999999999 C 373.20000000000005 583.3 375.70000000000005 583.9 378.20000000000005 584.5999999999999 C 378.80000000000007 584.8 379.50000000000006 584.9999999999999 380.1 585.0999999999999 C 380.40000000000003 585.1999999999999 380.8 585.3 381.1 585.3999999999999 C 381.8 585.5999999999999 382.5 585.7999999999998 383.20000000000005 585.9999999999999 C 384.6 586.3999999999999 385.90000000000003 586.8999999999999 387.30000000000007 587.2999999999998 C 387.30000000000007 587.2999999999998 388.1000000000001 587.5999999999998 389.4000000000001 588.1999999999998 C 390.0000000000001 588.4999999999998 390.80000000000007 588.7999999999998 391.7000000000001 589.2999999999998 C 392.6000000000001 589.6999999999998 393.5000000000001 590.1999999999998 394.5000000000001 590.7999999999998 C 395.8000000000001 591.4999999999999 397.10000000000014 592.2999999999998 398.4000000000001 593.0999999999998 C 391.80000000000007 580.1999999999998 387.80000000000007 566.0999999999998 386.1000000000001 551.9999999999998 C 385.30000000000007 544.7999999999997 385.1000000000001 537.6999999999998 385.4000000000001 530.5999999999998 C 385.5000000000001 528.7999999999998 385.6000000000001 527.0999999999998 385.7000000000001 525.2999999999998 C 385.9000000000001 523.5999999999998 386.1000000000001 521.7999999999998 386.2000000000001 520.0999999999998 C 386.4000000000001 518.3999999999997 386.7000000000001 516.6999999999998 387.0000000000001 514.8999999999997 C 387.3000000000001 513.1999999999997 387.5000000000001 511.69999999999976 387.7000000000001 510.09999999999974 C 388.1000000000001 506.89999999999975 388.5000000000001 503.69999999999976 388.7000000000001 500.4999999999997 C 388.8000000000001 498.8999999999997 388.9000000000001 497.2999999999997 388.9000000000001 495.6999999999997 C 388.9000000000001 494.0999999999997 389.0000000000001 492.4999999999997 389.0000000000001 490.9999999999997 C 389.0000000000001 484.6999999999997 388.7000000000001 478.4999999999997 387.9000000000001 472.4999999999997 C 387.6000000000001 470.2999999999997 387.30000000000007 468.09999999999974 386.9000000000001 465.9999999999997 C 386.9000000000001 465.8999999999997 386.80000000000007 465.7999999999997 386.7000000000001 465.6999999999997 C 386.6000000000001 465.5999999999997 386.5000000000001 465.3999999999997 386.4000000000001 465.2999999999997 C 386.2 464.2 384.9 462.9 383.2 461.7 z M 383.5 595.3 C 382.3 594.9 381 594.5 379.7 594.0999999999999 C 379.09999999999997 593.8999999999999 378.4 593.6999999999999 377.8 593.4999999999999 C 377.2 593.2999999999998 376.7 593.1999999999999 376.1 592.9999999999999 C 375.20000000000005 592.6999999999999 374.20000000000005 592.4999999999999 373.20000000000005 592.2999999999998 C 365.50000000000006 590.3999999999999 357.6 589.0999999999998 349.6 588.1999999999998 C 333.6 586.2999999999998 317.3 585.9999999999998 301.1 586.7999999999998 C 284.90000000000003 587.6999999999998 268.6 589.7999999999998 252.8 593.6999999999998 C 249.5 594.4999999999998 246.20000000000002 595.3999999999999 242.9 596.3999999999999 C 242.8 596.5999999999999 242.8 596.7999999999998 242.70000000000002 596.8999999999999 C 242.50000000000003 596.7999999999998 242.3 596.6999999999998 242.20000000000002 596.5999999999999 C 237.9 597.8999999999999 233.60000000000002 599.4999999999999 229.50000000000003 601.1999999999999 C 221.90000000000003 604.4 214.50000000000003 608.1999999999999 208.00000000000003 613.3 C 204.30000000000004 616.3 200.80000000000004 619.6999999999999 198.20000000000002 623.5999999999999 C 198.10000000000002 623.8 198.00000000000003 623.8 197.70000000000002 623.8999999999999 C 197.60000000000002 623.8999999999999 197.50000000000003 623.9999999999999 197.3 623.9999999999999 C 197.5 624.2999999999998 197.70000000000002 624.6999999999999 197.9 624.9999999999999 C 201.9 631.4999999999999 208 636.4999999999999 214.6 640.0999999999999 C 221.29999999999998 643.6999999999999 228.5 646.3 236 648.0999999999999 C 243.4 649.9999999999999 251.1 650.9999999999999 258.7 651.6999999999999 C 266.4 652.3 274.09999999999997 652.4999999999999 281.9 652.1999999999999 C 289.59999999999997 651.9999999999999 297.4 651.3 305.09999999999997 650.4 C 320.49999999999994 648.5 335.79999999999995 645.3 350.49999999999994 640.8 C 357.8999999999999 638.5 365.09999999999997 635.9 371.99999999999994 632.9 C 378.99999999999994 629.9 385.59999999999997 626.4 391.69999999999993 622.3 C 397.69999999999993 618.1999999999999 403.0999999999999 613.4 406.69999999999993 607.8 C 406.8999999999999 607.5999999999999 406.99999999999994 607.3 407.19999999999993 607.0999999999999 C 407.19999999999993 607.0999999999999 407.19999999999993 607.0999999999999 407.19999999999993 607.0999999999999 C 406.3999999999999 605.9999999999999 405.69999999999993 604.8999999999999 404.8999999999999 603.6999999999999 C 404.3999999999999 603.4 403.99999999999994 603.0999999999999 403.49999999999994 602.9 C 403.59999999999997 603 403.3999999999999 602.9 402.8999999999999 602.6 C 402.3999999999999 602.4 401.69999999999993 602 400.8999999999999 601.5 C 399.0999999999999 600.6 396.69999999999993 599.4 394.0999999999999 598.4 C 389.1 596.7 383.5 595.3 383.5 595.3 z M 249.1 433.2 C 254.9 432.5 260.6 432.09999999999997 266.3 431.9 C 272.7 431.7 279.2 431.79999999999995 285.6 432 C 285.6 428.3 285.70000000000005 424.6 285.90000000000003 420.9 C 286.00000000000006 420.09999999999997 286.00000000000006 419.29999999999995 286.1 418.5 C 281.5 418.4 276.90000000000003 418.3 272.40000000000003 418.4 C 267.00000000000006 418.5 261.70000000000005 418.9 256.40000000000003 419.59999999999997 C 255.20000000000005 419.79999999999995 254.00000000000003 419.9 252.80000000000004 420.09999999999997 C 251.3 424.5 250.1 428.8 249.1 433.2 z M 290.4 421.5 C 289.9 425 289.59999999999997 428.6 289.29999999999995 432.2 C 293.9 432.4 298.49999999999994 432.8 303.09999999999997 433.2 C 315.4 434.3 327.59999999999997 436 339.7 438.5 C 345.2 439.6 350.7 440.9 356.09999999999997 442.4 C 355.79999999999995 438 355.29999999999995 433.59999999999997 354.7 429.2 C 354.5 429.09999999999997 354.4 429.09999999999997 354.2 429 C 353.59999999999997 428.8 352.9 428.6 352.3 428.4 C 347.1 426.9 341.90000000000003 425.7 336.6 424.59999999999997 C 326 422.4 315.3 420.79999999999995 304.5 419.79999999999995 C 299.9 419.4 295.3 418.99999999999994 290.8 418.79999999999995 C 290.7 419.7 290.6 420.6 290.4 421.5 z" stroke-linecap="round" />
</g>
		<g transform="matrix(0.3721228867724121 0 0 0.3721228867724121 23.564963922541835 29.732618653115765)"  >
<path style="stroke: none; stroke-width: 1; stroke-dasharray: none; stroke-linecap: butt; stroke-dashoffset: 0; stroke-linejoin: miter; stroke-miterlimit: 4; fill: rgb(125,217,249); fill-rule: nonzero; opacity: 1;"  paint-order="stroke"  transform=" translate(-584.5, -483.90000000000003)" d="M 529.5 468.5 C 529.1 459.7 532.2 451.3 538.3 444.6 C 545.3 436.90000000000003 555.8 432.40000000000003 567 432.1 L 567.5 467.8 C 554.8 467.9 542.1 468.1 529.5 468.5 z M 630.7 444.6 C 623.7 436.90000000000003 613.2 432.40000000000003 602 432.1 L 601.5 467.8 C 614.1 467.90000000000003 626.9 468.1 639.5 468.5 C 639.9 459.6 636.8 451.2 630.7 444.6 z M 531.6 500 L 534 535.7 C 545.4 535.4000000000001 557 535.2 568.4 535.1 L 567.9 499.40000000000003 C 555.8 499.5 543.7 499.7 531.6 500 z M 637.4 500 C 625.3 499.7 613.1 499.5 601.1 499.4 L 600.6 535.1 C 612 535.2 623.6 535.4 635 535.7 L 637.4 500 z" stroke-linecap="round" />
</g>
		<g transform="matrix(0.3721228867724121 0 0 0.3721228867724121 23.592841256862584 -48.42298230133028)"  >
<path style="stroke: none; stroke-width: 1; stroke-dasharray: none; stroke-linecap: butt; stroke-dashoffset: 0; stroke-linejoin: miter; stroke-miterlimit: 4; fill: rgb(233,81,0); fill-rule: nonzero; opacity: 1;"  paint-order="stroke"  transform=" translate(-584.5749143234981, -273.873678769601)" d="M 795.3 389.9 C 737.9 311.8 673.9 238.4 605 171.3 C 603 169.3 601 167.4 598.9 165.4 C 596.9 163.5 594.9 161.6 593 159.70000000000002 C 590.9 157.70000000000002 588.8 155.70000000000002 586.7 153.70000000000002 C 585.5 152.50000000000003 583.5 152.50000000000003 582.3000000000001 153.70000000000002 L 582.3000000000001 153.70000000000002 C 580.5000000000001 155.4 578.8000000000001 157.00000000000003 577.0000000000001 158.70000000000002 C 575.3000000000001 160.3 573.6000000000001 162.00000000000003 571.9000000000001 163.60000000000002 C 570.2 165.3 568.4000000000001 166.90000000000003 566.7 168.60000000000002 C 532.4000000000001 201.8 499.20000000000005 236.70000000000002 467.50000000000006 272.90000000000003 L 478.6000000000001 276.70000000000005 C 485.00000000000006 278.90000000000003 489.1000000000001 284.6 489.1000000000001 291.30000000000007 C 489.1000000000001 298.00000000000006 485.00000000000006 303.80000000000007 478.7000000000001 305.9000000000001 L 454.1000000000001 314.4000000000001 L 445.7000000000001 339.0000000000001 C 443.6000000000001 345.3000000000001 437.7000000000001 349.5000000000001 431.1000000000001 349.5000000000001 C 424.4000000000001 349.5000000000001 418.7000000000001 345.4000000000001 416.50000000000006 339.10000000000014 L 415.30000000000007 335.60000000000014 C 401.1000000000001 353.40000000000015 387.30000000000007 371.5000000000001 373.80000000000007 389.8000000000001 C 372.70000000000005 391.40000000000015 373.30000000000007 392.8000000000001 373.70000000000005 393.40000000000015 C 374.00000000000006 394.00000000000017 375.00000000000006 395.20000000000016 376.90000000000003 394.90000000000015 C 388.00000000000006 393.00000000000017 399.1 391.20000000000016 410.20000000000005 389.60000000000014 C 428.1 387.0000000000001 446.00000000000006 384.8000000000001 464.00000000000006 383.0000000000001 C 504.1000000000001 379.0000000000001 544.3000000000001 377.0000000000001 584.6 377.0000000000001 C 623.5 377.0000000000001 662.4 378.9000000000001 701.2 382.60000000000014 C 720.1 384.40000000000015 739 386.70000000000016 757.9000000000001 389.40000000000015 C 769.4000000000001 391.10000000000014 780.8000000000001 392.90000000000015 792.3000000000001 394.8000000000001 C 794.2 395.10000000000014 795.2 393.90000000000015 795.5000000000001 393.3000000000001 C 795.8 392.9 796.5 391.5 795.3 389.9 z" stroke-linecap="round" />
</g>
		<g transform="matrix(0.3721228867724121 0 0 0.3721228867724121 -51.49222233945363 -62.95388936972279)"  >
<path style="stroke: none; stroke-width: 1; stroke-dasharray: none; stroke-linecap: butt; stroke-dashoffset: 0; stroke-linejoin: miter; stroke-miterlimit: 4; fill: rgb(125,217,249); fill-rule: nonzero; opacity: 1;"  paint-order="stroke"  transform=" translate(-382.8, -234.825)" d="M 425.9 336 L 415.79999999999995 306.7 L 386.49999999999994 296.7 C 381.59999999999997 295 381.59999999999997 288.09999999999997 386.49999999999994 286.4 L 415.79999999999995 276.29999999999995 L 425.79999999999995 246.99999999999994 C 427.49999999999994 242.09999999999994 434.4 242.09999999999994 436.09999999999997 246.99999999999994 L 446.2 276.29999999999995 L 475.5 286.29999999999995 C 480.4 287.99999999999994 480.4 294.9 475.5 296.59999999999997 L 446.2 306.7 L 436.2 336 C 434.6 340.9 427.6 340.9 425.9 336 z M 317.6 270.9 L 323.40000000000003 253.79999999999998 L 340.50000000000006 247.89999999999998 C 343.40000000000003 246.89999999999998 343.40000000000003 242.79999999999998 340.50000000000006 241.89999999999998 L 323.40000000000003 236.09999999999997 L 317.50000000000006 218.99999999999997 C 316.50000000000006 216.09999999999997 312.40000000000003 216.09999999999997 311.50000000000006 218.99999999999997 L 305.70000000000005 236.09999999999997 L 288.6 241.99999999999997 C 285.70000000000005 242.99999999999997 285.70000000000005 247.09999999999997 288.6 247.99999999999997 L 305.70000000000005 253.79999999999998 L 311.6 270.9 C 312.5 273.8 316.6 273.8 317.6 270.9 z M 389.2 195.2 L 396.2 174.6 L 416.8 167.5 C 420.3 166.3 420.3 161.4 416.8 160.2 L 396.2 153.2 L 389.09999999999997 132.6 C 387.9 129.1 382.99999999999994 129.1 381.79999999999995 132.6 L 374.79999999999995 153.2 L 354.19999999999993 160.29999999999998 C 350.69999999999993 161.49999999999997 350.69999999999993 166.39999999999998 354.19999999999993 167.6 L 374.79999999999995 174.6 L 381.9 195.2 C 383.1 198.7 388 198.7 389.2 195.2 z" stroke-linecap="round" />
</g>
		<g transform="matrix(0.3721228867724121 0 0 0.3721228867724121 -9.126605120143267 6.44777492705677)"  >
<path style="stroke: none; stroke-width: 1; stroke-dasharray: none; stroke-linecap: butt; stroke-dashoffset: 0; stroke-linejoin: miter; stroke-miterlimit: 4; fill: rgb(0,0,0); fill-rule: nonzero; opacity: 0.35;"  paint-order="stroke"  transform=" translate(-496.64845900440656, -421.32700448225904)" d="M 394.2 598.8 C 396.8 599.8 399.2 601 401 601.9 C 401.8 602.4 402.5 602.8 403 603 C 403.5 603.3 403.7 603.4 403.6 603.3 C 404.1 603.5999999999999 404.6 603.9 405 604.0999999999999 C 405.8 605.1999999999999 406.5 606.3 407.3 607.4999999999999 C 407.3 607.4999999999999 407.3 607.4999999999999 407.3 607.4999999999999 C 407.1 607.6999999999999 407 607.9999999999999 406.8 608.1999999999999 C 403.3 613.6999999999999 397.8 618.4999999999999 391.8 622.6999999999999 C 385.7 626.8 379 630.3 372.1 633.3 C 365.1 636.3 357.90000000000003 638.9 350.6 641.1999999999999 C 335.90000000000003 645.6999999999999 320.6 648.9 305.20000000000005 650.8 C 297.50000000000006 651.6999999999999 289.70000000000005 652.4 282.00000000000006 652.5999999999999 C 274.30000000000007 652.8 266.50000000000006 652.6999999999999 258.80000000000007 652.0999999999999 C 251.10000000000008 651.3999999999999 243.50000000000006 650.3999999999999 236.10000000000008 648.4999999999999 C 228.70000000000007 646.6999999999999 221.4000000000001 644.0999999999999 214.70000000000007 640.4999999999999 C 208.10000000000008 636.7999999999998 202.00000000000009 631.8999999999999 198.00000000000009 625.3999999999999 C 197.8000000000001 625.0999999999999 197.60000000000008 624.6999999999998 197.4000000000001 624.3999999999999 C 197.50000000000009 624.3999999999999 197.60000000000008 624.2999999999998 197.8000000000001 624.2999999999998 C 198.1000000000001 624.1999999999998 198.2000000000001 624.1999999999998 198.3000000000001 623.9999999999999 C 200.9000000000001 620.0999999999999 204.4000000000001 616.6999999999999 208.1000000000001 613.6999999999999 C 214.6000000000001 608.5999999999999 222.0000000000001 604.8 229.6000000000001 601.5999999999999 C 233.8000000000001 599.8999999999999 238.0000000000001 598.3999999999999 242.3000000000001 596.9999999999999 C 242.50000000000009 597.0999999999999 242.7000000000001 597.1999999999999 242.8000000000001 597.2999999999998 C 242.9000000000001 597.0999999999998 242.9000000000001 596.8999999999999 243.00000000000009 596.7999999999998 C 246.3000000000001 595.7999999999998 249.60000000000008 594.8999999999999 252.9000000000001 594.0999999999998 C 268.80000000000007 590.1999999999998 285.0000000000001 588.0999999999998 301.2000000000001 587.1999999999998 C 317.4000000000001 586.3999999999999 333.7000000000001 586.6999999999998 349.7000000000001 588.5999999999998 C 357.7000000000001 589.4999999999998 365.6000000000001 590.8999999999997 373.3000000000001 592.6999999999998 C 374.3000000000001 592.8999999999999 375.2000000000001 593.1999999999998 376.2000000000001 593.3999999999999 C 376.8000000000001 593.5999999999999 377.3000000000001 593.6999999999998 377.9000000000001 593.8999999999999 C 378.5000000000001 594.0999999999999 379.2000000000001 594.2999999999998 379.80000000000007 594.4999999999999 C 381.1000000000001 594.8999999999999 382.30000000000007 595.2999999999998 383.6000000000001 595.6999999999999 C 383.5 595.3 389.1 596.7 394.2 598.8 z M 315.3 299.9 C 311.8 308.4 308.8 317 306.2 325.9 C 306.7 325.9 307.2 326 307.7 326 C 310.2 326.2 312.7 326.6 315.2 327 C 320.2 327.8 325.09999999999997 329.1 330 330.6 C 331.2 331 332.4 331.40000000000003 333.7 331.90000000000003 C 334.3 332.1 334.9 332.40000000000003 335.5 332.6 C 349.9 284.90000000000003 377.6 244.50000000000003 413.6 214.70000000000002 C 369.9 232.5 337.2 261.3 315.3 299.9 z M 330 340.3 C 330.5 340.5 331 340.7 331.5 340.90000000000003 L 323 337 C 324 337.6 324.9 338.3 325.8 339 C 326.1 339.1 326.40000000000003 339.2 326.6 339.2 C 327.8 339.6 328.9 339.9 330 340.3 z M 350.9 384.6 C 351.2 384.8 351.5 385.1 351.79999999999995 385.3 C 351.9 385.40000000000003 352.09999999999997 385.5 352.29999999999995 385.7 C 352.59999999999997 385.9 352.79999999999995 386.09999999999997 353.09999999999997 386.3 C 353.2 386.40000000000003 353.2 386.40000000000003 353.29999999999995 386.5 C 353.29999999999995 385.8 353.29999999999995 385 353.29999999999995 384.2 C 353.19999999999993 384.5 353.29999999999995 383.09999999999997 353.4 380.9 C 353.4 380.29999999999995 353.5 379.7 353.5 379.09999999999997 C 353.5 378.49999999999994 353.6 377.7 353.6 377.09999999999997 C 353.6 375.79999999999995 353.70000000000005 374.4 353.5 372.99999999999994 C 353.5 371.59999999999997 353.2 370.19999999999993 353 368.8999999999999 C 352.9 368.19999999999993 352.7 367.5999999999999 352.6 367.0999999999999 C 352.5 366.4999999999999 352.3 365.9999999999999 352.20000000000005 365.4999999999999 C 351.90000000000003 364.4999999999999 351.6 363.6999999999999 351.40000000000003 363.0999999999999 C 351.3 362.7999999999999 351.20000000000005 362.5999999999999 351.1 362.3999999999999 C 351 362.19999999999993 351 362.19999999999993 351 362.19999999999993 C 350.8 361.5999999999999 350.6 360.99999999999994 350.4 360.3999999999999 C 350.2 359.7999999999999 349.9 359.19999999999993 349.59999999999997 358.5999999999999 C 349.29999999999995 357.9999999999999 349.09999999999997 357.3999999999999 348.79999999999995 356.8999999999999 C 348.59999999999997 356.49999999999994 348.4 356.19999999999993 348.19999999999993 355.7999999999999 C 347.8999999999999 355.2999999999999 347.69999999999993 354.7999999999999 347.3999999999999 354.3999999999999 C 345.49999999999994 351.2999999999999 343.0999999999999 348.5999999999999 340.2999999999999 346.19999999999993 C 339.6999999999999 345.69999999999993 339.0999999999999 345.19999999999993 338.4999999999999 344.79999999999995 C 338.2999999999999 344.59999999999997 338.0999999999999 344.49999999999994 337.89999999999986 344.29999999999995 C 337.6999999999999 344.19999999999993 337.39999999999986 343.99999999999994 337.1999999999999 343.9 C 336.89999999999986 343.7 336.59999999999985 343.5 336.2999999999999 343.29999999999995 C 336.1999999999999 343.19999999999993 335.9999999999999 343.09999999999997 335.8999999999999 342.99999999999994 C 335.49999999999994 342.69999999999993 335.0999999999999 342.49999999999994 334.5999999999999 342.29999999999995 L 331.4999999999999 340.9 C 330.9999999999999 340.7 330.4999999999999 340.5 329.9999999999999 340.29999999999995 C 328.89999999999986 339.9 327.7999999999999 339.59999999999997 326.6999999999999 339.29999999999995 C 326.39999999999986 339.19999999999993 326.09999999999985 339.09999999999997 325.89999999999986 339.09999999999997 C 336.89999999999986 347.79999999999995 342.89999999999986 365.7 328.79999999999984 372.29999999999995 C 328.79999999999984 372.29999999999995 328.79999999999984 372.29999999999995 328.79999999999984 372.29999999999995 C 336.29999999999984 375.19999999999993 343.39999999999986 379.09999999999997 349.39999999999986 383.59999999999997 C 349.8 383.8 350.4 384.2 350.9 384.6 z M 364.9 432.3 C 362.79999999999995 431.6 361.4 431.3 361.4 431.3 C 360.79999999999995 431.1 360.09999999999997 430.90000000000003 359.5 430.6 C 359.7 434.90000000000003 359.8 439.1 359.8 443.3 C 360.1 443.40000000000003 360.3 443.5 360.6 443.5 C 361.3 443.7 362 443.9 362.70000000000005 444.1 C 364.1 444.6 365.50000000000006 445 366.80000000000007 445.5 C 366.80000000000007 445.5 367.6000000000001 445.8 368.9000000000001 446.4 C 369.6000000000001 446.7 370.30000000000007 447.09999999999997 371.2000000000001 447.5 C 372.1000000000001 447.9 373.1000000000001 448.4 374.1000000000001 449 C 376.2000000000001 450.1 378.50000000000006 451.4 380.7000000000001 453 C 382.4000000000001 454.2 384.1000000000001 455.6 385.5000000000001 457.1 C 384.0000000000001 450.70000000000005 382.0000000000001 444.6 379.7000000000001 438.70000000000005 C 379.5000000000001 438.6 379.3000000000001 438.40000000000003 379.0000000000001 438.20000000000005 C 377.4000000000001 437.20000000000005 374.9000000000001 435.90000000000003 372.3000000000001 434.80000000000007 C 369.7 433.8 367 432.9 364.9 432.3 z M 358.7 421.1 C 358.8 421.1 358.9 421.20000000000005 359 421.20000000000005 C 359.7 421.40000000000003 360.4 421.6 361.1 421.90000000000003 C 362.5 422.40000000000003 363.90000000000003 422.8 365.20000000000005 423.3 C 365.20000000000005 423.3 366.00000000000006 423.6 367.30000000000007 424.3 C 368.00000000000006 424.6 368.70000000000005 425 369.6000000000001 425.40000000000003 C 370.50000000000006 425.8 371.4000000000001 426.3 372.50000000000006 426.90000000000003 C 373.30000000000007 427.40000000000003 374.20000000000005 427.90000000000003 375.1000000000001 428.50000000000006 C 371.7000000000001 421.6000000000001 367.7000000000001 415.30000000000007 363.30000000000007 409.6000000000001 C 360.50000000000006 405.9000000000001 357.50000000000006 402.50000000000006 354.30000000000007 399.4000000000001 C 355.70000000000005 403.9000000000001 356.80000000000007 408.5000000000001 357.6000000000001 413.1000000000001 C 358 415.7 358.4 418.4 358.7 421.1 z M 354.8 429.1 C 354.6 429 354.5 429 354.3 428.90000000000003 C 353.7 428.70000000000005 353 428.50000000000006 352.40000000000003 428.3 C 348.8 427.3 345.1 426.40000000000003 341.40000000000003 425.5 C 341.70000000000005 429.8 341.70000000000005 434.2 341.50000000000006 438.7 C 346.40000000000003 439.7 351.30000000000007 440.9 356.20000000000005 442.2 C 355.9 437.9 355.4 433.5 354.8 429.1 z M 352 414.2 C 350.8 409.4 349.3 404.7 347.4 400.09999999999997 C 344.9 393.9 342.29999999999995 388.9 336.7 384.9 C 333.59999999999997 382.7 329.09999999999997 380.4 324.4 378.59999999999997 C 333.59999999999997 390.09999999999997 338.4 402.7 340.4 416.09999999999997 C 344.59999999999997 417.09999999999997 348.9 418.09999999999997 353.09999999999997 419.29999999999995 C 352.8 417.7 352.4 415.9 352 414.2 z M 335.3 578 C 341.40000000000003 578.4 347.40000000000003 579 353.5 579.8 C 355.3 580.0999999999999 357.2 580.3 359 580.5999999999999 C 357.1 577.1999999999999 355.4 573.5999999999999 353.8 569.9999999999999 C 350.8 562.8999999999999 348.5 555.3999999999999 347 547.6999999999999 C 345.5 539.9999999999999 344.9 532.1999999999999 344.8 524.4999999999999 C 344.7 516.6999999999999 345.1 508.9999999999999 345.8 501.2999999999999 C 345.90000000000003 516.6999999999999 347.2 532.0999999999999 351.5 546.3999999999999 C 353.6 553.4999999999999 356.5 560.2999999999998 360 566.6999999999998 C 363.2 572.3999999999999 366.9 577.7999999999998 370.9 582.8999999999999 C 373.4 583.4999999999999 375.9 584.0999999999999 378.4 584.7999999999998 C 379 584.9999999999999 379.7 585.1999999999998 380.29999999999995 585.2999999999998 C 380.59999999999997 585.3999999999999 380.99999999999994 585.4999999999999 381.29999999999995 585.5999999999998 C 381.99999999999994 585.7999999999998 382.69999999999993 585.9999999999998 383.4 586.1999999999998 C 384.79999999999995 586.5999999999998 386.09999999999997 587.0999999999998 387.5 587.4999999999998 C 387.5 587.4999999999998 388.3 587.7999999999997 389.6 588.3999999999997 C 390.20000000000005 588.6999999999997 391 588.9999999999998 391.90000000000003 589.4999999999998 C 392.8 589.8999999999997 393.70000000000005 590.3999999999997 394.70000000000005 590.9999999999998 C 396.00000000000006 591.6999999999998 397.30000000000007 592.4999999999998 398.6 593.2999999999997 C 392 580.3999999999997 388 566.2999999999997 386.3 552.1999999999997 C 385.5 544.9999999999997 385.3 537.8999999999997 385.6 530.7999999999997 C 385.70000000000005 528.9999999999998 385.8 527.2999999999997 385.90000000000003 525.4999999999998 C 386.1 523.7999999999997 386.3 521.9999999999998 386.40000000000003 520.2999999999997 C 386.6 518.5999999999997 386.90000000000003 516.8999999999997 387.20000000000005 515.0999999999997 C 387.50000000000006 513.3999999999996 387.70000000000005 511.8999999999997 387.90000000000003 510.29999999999967 C 388.3 507.0999999999997 388.70000000000005 503.8999999999997 388.90000000000003 500.69999999999965 C 389.00000000000006 499.0999999999996 389.1 497.49999999999966 389.1 495.89999999999964 C 389.1 494.2999999999996 389.20000000000005 492.69999999999965 389.20000000000005 491.19999999999965 C 389.20000000000005 484.89999999999964 388.90000000000003 478.69999999999965 388.1 472.69999999999965 C 387.8 470.49999999999966 387.5 468.29999999999967 387.1 466.19999999999965 C 387.1 466.0999999999996 387 465.99999999999966 386.90000000000003 465.89999999999964 C 386.8 465.7999999999996 386.70000000000005 465.5999999999996 386.6 465.49999999999966 C 385.90000000000003 464.29999999999967 384.6 462.99999999999966 382.90000000000003 461.79999999999967 C 383.00000000000006 461.8999999999997 382.8 461.79999999999967 382.40000000000003 461.49999999999966 C 382.00000000000006 461.19999999999965 381.3 460.79999999999967 380.50000000000006 460.29999999999967 C 378.90000000000003 459.29999999999967 376.40000000000003 458.0999999999997 373.80000000000007 457.0999999999997 C 371.20000000000005 456.0999999999997 368.4000000000001 455.1999999999997 366.30000000000007 454.5999999999997 C 364.20000000000005 453.99999999999966 362.80000000000007 453.5999999999997 362.80000000000007 453.5999999999997 C 361.6000000000001 453.1999999999997 360.4000000000001 452.79999999999967 359.20000000000005 452.49999999999966 C 359.1 454.69999999999965 359.00000000000006 456.89999999999964 358.80000000000007 458.99999999999966 C 358.1000000000001 469.0999999999997 357.00000000000006 479.0999999999997 355.30000000000007 488.99999999999966 C 356.30000000000007 478.99999999999966 356.6000000000001 468.89999999999964 356.50000000000006 458.89999999999964 C 356.50000000000006 456.49999999999966 356.40000000000003 454.0999999999996 356.30000000000007 451.5999999999996 C 355.30000000000007 451.2999999999996 354.30000000000007 451.0999999999996 353.4000000000001 450.7999999999996 C 349.2000000000001 449.6999999999996 344.9000000000001 448.6999999999996 340.6000000000001 447.89999999999964 C 337.3 491.2 319.6 538.4 335.3 578 z M 356 392.4 C 352.4 389.59999999999997 348.5 387.09999999999997 344.2 384.9 C 350.4 389.29999999999995 356 393.09999999999997 356 393.09999999999997 L 356 392.4 z M 792.2 394.9 C 794.1 395.2 795.1 394 795.4000000000001 393.4 C 795.7 392.79999999999995 796.4000000000001 391.4 795.3000000000001 389.79999999999995 C 737.9 311.8 673.9 238.4 605 171.3 C 603 169.3 601 167.4 598.9 165.4 C 598.4 164.9 597.9 164.4 597.4 164 C 653.8 240.4 703.8 315.5 732.7 386.1 C 741.1 387.1 749.4000000000001 388.20000000000005 757.8000000000001 389.40000000000003 C 769.3 391.1 780.7 392.9 792.2 394.9 z M 721.5 583.2 L 747 398.1 C 738.7 397 721.9 395 721.9 395 C 721.9 395 713.9 535.1 670.9 616 C 686.6999999999999 608.4 701.8 599 715.9 587.9 C 717.8 586.3 719.7 584.8 721.5 583.2 z M 739.1 580.9 C 736.4 583.4 733.7 585.9 730.9 588.3 C 729 589.9 727.1 591.5 725.1999999999999 593.0999999999999 C 724.1999999999999 593.8999999999999 723.1999999999999 594.8 722.0999999999999 595.5999999999999 C 721.1999999999999 596.3 720.3999999999999 596.8999999999999 719.4999999999999 597.5999999999999 C 668.5999999999999 636.8999999999999 605.5999999999999 654.3999999999999 541.8 646.9999999999999 C 510.29999999999995 643.3999999999999 480.29999999999995 633.8999999999999 452.69999999999993 618.7999999999998 C 452.19999999999993 618.4999999999999 451.69999999999993 618.2999999999998 451.19999999999993 618.0999999999998 C 450.19999999999993 617.6999999999998 449.19999999999993 617.3999999999997 448.0999999999999 617.1999999999998 C 460.7999999999999 637.0999999999998 479.0999999999999 656.8999999999999 499.9999999999999 669.5999999999998 C 512.4999999999999 672.8999999999997 525.2999999999998 675.2999999999998 538.2999999999998 676.7999999999998 C 542.0999999999998 677.1999999999998 545.9999999999999 677.5999999999998 549.8999999999999 677.8999999999999 C 618.6999999999998 682.9999999999999 686.4999999999999 662.0999999999999 740.6999999999998 619.0999999999999 C 755.3999999999999 607.3999999999999 768.6999999999998 594.4999999999999 780.5999999999998 580.3999999999999 C 770.6 580.5 749.5 580.7 739.1 580.9 z" stroke-linecap="round" />
</g>
</g>
</g>
<g transform="matrix(1.9211538461538462 0 0 1.9211538461538462 639.9812687499995 701.3221799515254)" id="text-logo"  >
<g style=""  paint-order="stroke"   >
		<g transform="matrix(1 0 0 1 0 0)" id="text-logo-path-0"  >
<path style="stroke: none; stroke-width: 0; stroke-dasharray: none; stroke-linecap: butt; stroke-dashoffset: 0; stroke-linejoin: miter; stroke-miterlimit: 4; fill: rgb(235,83,4); fill-rule: nonzero; opacity: 1;"  paint-order="stroke"  transform=" translate(-309.74000000000007, 13.65)" d="M 15.33 0.39 C 20.9 0.39 25.04 -1.95 27.73 -7.02 L 22.23 -10.02 C 20.86 -7.41 18.37 -5.85 15.33 -5.85 C 10.84 -5.85 7.53 -8.97 7.53 -13.65 C 7.53 -18.14 10.65 -21.45 15.33 -21.45 C 18.33 -21.45 20.59 -20.16 22.11 -17.47 L 27.69 -20.36 C 25.23 -24.88 20.71 -27.69 15.33 -27.69 C 7.18 -27.69 1.29 -22.15 1.29 -13.65 C 1.29 -5.5 6.83 0.39 15.33 0.39 Z M 48.91 0 L 55.93 0 L 46.96 -27.3 L 39.94 -27.3 L 30.97 0 L 37.99 0 L 39.27 -4.49 L 47.62 -4.49 Z M 40.95 -10.34 L 43.45 -19.11 L 45.94 -10.34 Z M 60.57 0 L 66.81 0 L 66.81 -8.78 L 70.39 -8.78 L 75.39 0 L 82.41 0 L 76.01 -10.65 C 78.9 -11.93 80.73 -14.27 80.73 -18.06 C 80.73 -23.36 77.03 -27.3 71.49 -27.3 L 60.57 -27.3 Z M 66.81 -14.63 L 66.81 -21.45 L 71.1 -21.45 C 73.44 -21.45 74.49 -20.48 74.49 -18.06 C 74.49 -15.68 73.52 -14.63 71.1 -14.63 Z M 100.03 0.39 C 108.19 0.39 114.08 -5.15 114.08 -13.65 C 114.08 -21.76 108.5 -27.69 100.03 -27.69 C 91.88 -27.69 86 -22.15 86 -13.65 C 86 -5.5 91.53 0.39 100.03 0.39 Z M 92.23 -13.65 C 92.23 -18.14 95.36 -21.45 100.03 -21.45 C 104.52 -21.45 107.83 -18.33 107.83 -13.65 C 107.83 -9.16 104.72 -5.85 100.03 -5.85 C 95.55 -5.85 92.23 -8.97 92.23 -13.65 Z M 119.85 0 L 137.94 0 L 137.94 -5.85 L 126.09 -5.85 L 126.09 -27.3 L 119.85 -27.3 Z M 143.64 0 L 149.88 0 L 149.88 -27.3 L 143.64 -27.3 Z M 174.49 0 L 180.02 0 L 180.02 -27.3 L 173.78 -27.3 L 173.78 -11.93 L 164.35 -27.3 L 157.72 -27.3 L 157.72 0 L 163.96 0 L 163.96 -17.16 Z M 202.57 0 L 209.59 0 L 200.62 -27.3 L 193.6 -27.3 L 184.63 0 L 191.65 0 L 192.93 -4.49 L 201.28 -4.49 Z M 194.61 -10.34 L 197.11 -19.11 L 199.6 -10.34 Z M 215.75 -14.9 L 218.48 -14.9 L 219.65 -22.31 L 219.65 -27.3 L 214.58 -27.3 L 214.58 -22.31 Z M 234.97 0.39 C 241.22 0.39 245.08 -4.09 245.08 -7.92 C 245.08 -12.44 240.98 -15.13 236.11 -16.69 C 232.83 -17.78 231.89 -18.37 231.89 -19.66 C 231.89 -20.79 233.26 -21.45 234.74 -21.45 C 236.38 -21.45 237.63 -20.59 238.84 -18.33 L 244.34 -21.61 C 242.35 -24.92 238.72 -27.69 234.74 -27.69 C 230.06 -27.69 225.65 -24.06 225.65 -19.66 C 225.65 -14.59 229.71 -12.68 234.31 -11.15 C 237.39 -10.14 238.56 -9.36 238.56 -7.92 C 238.56 -6.75 237.39 -5.85 234.97 -5.85 C 232.87 -5.85 231.11 -6.51 229.67 -9.28 L 224.37 -6.12 C 226.43 -2.57 229.94 0.39 234.97 0.39 Z M 277.95 0 L 284.19 0 L 284.19 -27.3 L 277.95 -27.3 L 277.95 -16.57 L 268.2 -16.57 L 268.2 -27.3 L 261.96 -27.3 L 261.96 0 L 268.2 0 L 268.2 -10.72 L 277.95 -10.72 Z M 303.73 0.39 C 311.88 0.39 317.77 -5.15 317.77 -13.65 C 317.77 -21.76 312.19 -27.69 303.73 -27.69 C 295.58 -27.69 289.69 -22.15 289.69 -13.65 C 289.69 -5.5 295.23 0.39 303.73 0.39 Z M 295.93 -13.65 C 295.93 -18.14 299.05 -21.45 303.73 -21.45 C 308.22 -21.45 311.53 -18.33 311.53 -13.65 C 311.53 -9.16 308.41 -5.85 303.73 -5.85 C 299.25 -5.85 295.93 -8.97 295.93 -13.65 Z M 334.11 0.39 C 341.06 0.39 344.8 -3.63 344.8 -10.37 L 344.8 -27.3 L 338.56 -27.3 L 338.56 -10.34 C 338.56 -7.25 337.04 -5.85 334.07 -5.85 C 330.99 -5.85 329.59 -7.37 329.59 -10.34 L 329.59 -27.3 L 323.35 -27.3 L 323.35 -10.37 C 323.35 -3.31 327.33 0.39 334.11 0.39 Z M 360.83 0.39 C 367.07 0.39 370.93 -4.09 370.93 -7.92 C 370.93 -12.44 366.83 -15.13 361.96 -16.69 C 358.68 -17.78 357.75 -18.37 357.75 -19.66 C 357.75 -20.79 359.11 -21.45 360.59 -21.45 C 362.23 -21.45 363.48 -20.59 364.69 -18.33 L 370.19 -21.61 C 368.2 -24.92 364.57 -27.69 360.59 -27.69 C 355.91 -27.69 351.51 -24.06 351.51 -19.66 C 351.51 -14.59 355.56 -12.68 360.16 -11.15 C 363.25 -10.14 364.42 -9.36 364.42 -7.92 C 364.42 -6.75 363.25 -5.85 360.83 -5.85 C 358.72 -5.85 356.97 -6.51 355.52 -9.28 L 350.22 -6.12 C 352.29 -2.57 355.8 0.39 360.83 0.39 Z M 376.35 0 L 394.45 0 L 394.45 -5.85 L 382.59 -5.85 L 382.59 -10.72 L 392.85 -10.72 L 392.85 -16.57 L 382.59 -16.57 L 382.59 -21.45 L 394.06 -21.45 L 394.06 -27.3 L 376.35 -27.3 Z M 424.51 0.39 C 430.09 0.39 434.23 -1.95 436.92 -7.02 L 431.42 -10.02 C 430.05 -7.41 427.56 -5.85 424.51 -5.85 C 420.03 -5.85 416.71 -8.97 416.71 -13.65 C 416.71 -18.14 419.83 -21.45 424.51 -21.45 C 427.52 -21.45 429.78 -20.16 431.3 -17.47 L 436.88 -20.36 C 434.42 -24.88 429.9 -27.69 424.51 -27.69 C 416.36 -27.69 410.47 -22.15 410.47 -13.65 C 410.47 -5.5 416.01 0.39 424.51 0.39 Z M 442.53 0 L 460.63 0 L 460.63 -5.85 L 448.77 -5.85 L 448.77 -27.3 L 442.53 -27.3 Z M 466.28 0 L 484.38 0 L 484.38 -5.85 L 472.52 -5.85 L 472.52 -10.72 L 482.78 -10.72 L 482.78 -16.57 L 472.52 -16.57 L 472.52 -21.45 L 483.99 -21.45 L 483.99 -27.3 L 466.28 -27.3 Z M 506.88 0 L 513.9 0 L 504.93 -27.3 L 497.91 -27.3 L 488.94 0 L 495.96 0 L 497.25 -4.49 L 505.6 -4.49 Z M 498.93 -10.34 L 501.42 -19.11 L 503.92 -10.34 Z M 535.35 0 L 540.89 0 L 540.89 -27.3 L 534.65 -27.3 L 534.65 -11.93 L 525.21 -27.3 L 518.58 -27.3 L 518.58 0 L 524.82 0 L 524.82 -17.16 Z M 548.69 0 L 554.93 0 L 554.93 -27.3 L 548.69 -27.3 Z M 579.54 0 L 585.08 0 L 585.08 -27.3 L 578.84 -27.3 L 578.84 -11.93 L 569.4 -27.3 L 562.77 -27.3 L 562.77 0 L 569.01 0 L 569.01 -17.16 Z M 604.93 0.39 C 607.89 0.39 610.54 -0.43 612.69 -1.95 L 613.12 0 L 618.19 0 L 618.19 -14.63 L 605.16 -14.63 L 605.16 -8.78 L 610.9 -8.78 C 609.57 -6.98 607.5 -5.85 604.93 -5.85 C 600.44 -5.85 597.13 -8.97 597.13 -13.65 C 597.13 -18.14 600.25 -21.45 604.93 -21.45 C 607.46 -21.45 609.57 -20.48 610.97 -18.68 L 615.73 -22.7 C 613.16 -25.82 609.37 -27.69 604.93 -27.69 C 596.78 -27.69 590.89 -22.15 590.89 -13.65 C 590.89 -5.5 596.43 0.39 604.93 0.39 Z" stroke-linecap="round" />
</g>
</g>
</g>
<g transform="matrix(1.9211538461538462 0 0 1.9211538461538462 640.8558702862082 791.0905379745235)" id="tagline-c7cec3b3-5a76-4afd-b86c-28120950dbea-logo"  >
<g style=""  paint-order="stroke"   >
		<g transform="matrix(1 0 0 1 -5.684342e-14 0)" id="tagline-c7cec3b3-5a76-4afd-b86c-28120950dbea-logo-path-0"  >
<path style="stroke: none; stroke-width: 0; stroke-dasharray: none; stroke-linecap: butt; stroke-dashoffset: 0; stroke-linejoin: miter; stroke-miterlimit: 4; fill: rgb(251,219,139); fill-rule: nonzero; opacity: 1;"  paint-order="stroke"  transform=" translate(-268.205, 5.675000000000001)" d="M 1.51 0 L 1.51 -13.89 L 9.56 -13.89 L 9.56 -11.11 L 4.57 -11.11 L 4.57 -8.36 L 9.36 -8.36 L 9.36 -5.58 L 4.57 -5.58 L 4.57 0 L 1.51 0 Z M 22.6 0 L 22.6 -13.89 L 26.79 -13.89 Q 28.45 -13.89 29.5 -13.56 Q 30.55 -13.23 31.17 -12.59 L 31.17 -12.59 Q 32.21 -11.49 32.21 -9.6 L 32.21 -9.6 Q 32.21 -7.61 31.06 -6.54 L 31.06 -6.54 Q 30.68 -6.17 30.18 -5.93 Q 29.68 -5.69 29 -5.55 L 29 -5.55 L 33.21 0 L 29.35 0 L 25.67 -5.26 L 25.67 0 L 22.6 0 Z M 25.67 -7.58 L 26.48 -7.58 Q 27.07 -7.58 27.45 -7.61 Q 27.84 -7.64 28.2 -7.79 Q 28.56 -7.94 28.79 -8.26 L 28.79 -8.26 Q 29.14 -8.7 29.14 -9.42 L 29.14 -9.42 Q 29.14 -10.16 28.79 -10.59 L 28.79 -10.59 Q 28.56 -10.89 28.2 -11.03 Q 27.85 -11.17 27.46 -11.2 Q 27.08 -11.23 26.48 -11.23 L 26.48 -11.23 L 25.67 -11.23 L 25.67 -7.58 Z M 45.65 0 L 45.65 -13.89 L 53.71 -13.89 L 53.71 -11.11 L 48.71 -11.11 L 48.71 -8.56 L 53.5 -8.56 L 53.5 -5.78 L 48.71 -5.78 L 48.71 -2.77 L 53.71 -2.77 L 53.71 0 L 45.65 0 Z M 71.87 0.2 Q 70.3 0.2 69.02 -0.3 Q 67.74 -0.81 66.98 -1.88 Q 66.23 -2.95 66.25 -4.57 L 66.25 -4.57 L 69.44 -4.57 Q 69.44 -3.47 70.14 -2.88 Q 70.85 -2.29 71.98 -2.29 L 71.98 -2.29 Q 72.85 -2.29 73.41 -2.66 Q 73.96 -3.03 73.96 -3.91 L 73.96 -3.91 Q 73.96 -4.5 73.6 -4.85 Q 73.24 -5.2 72.7 -5.39 Q 72.15 -5.58 71.16 -5.8 L 71.16 -5.8 Q 70.66 -5.9 70.09 -6.05 L 70.09 -6.05 Q 69.09 -6.32 68.37 -6.71 Q 67.64 -7.1 67.17 -7.84 Q 66.69 -8.58 66.69 -9.77 L 66.69 -9.77 Q 66.69 -11.21 67.38 -12.18 Q 68.08 -13.16 69.2 -13.62 Q 70.33 -14.09 71.61 -14.09 L 71.61 -14.09 Q 72.9 -14.09 74.04 -13.62 Q 75.19 -13.15 75.91 -12.15 Q 76.63 -11.16 76.63 -9.67 L 76.63 -9.67 L 73.63 -9.67 Q 73.55 -10.62 72.98 -11.11 Q 72.4 -11.61 71.49 -11.61 L 71.49 -11.61 Q 70.7 -11.61 70.22 -11.24 Q 69.75 -10.88 69.75 -10.2 L 69.75 -10.2 Q 69.75 -9.63 70.08 -9.3 Q 70.42 -8.97 70.93 -8.8 Q 71.45 -8.64 72.37 -8.45 L 72.37 -8.45 L 72.79 -8.36 Q 74.05 -8.08 74.94 -7.67 Q 75.84 -7.26 76.43 -6.44 Q 77.02 -5.61 77.02 -4.25 L 77.02 -4.25 Q 77.02 -2.63 76.31 -1.63 Q 75.6 -0.64 74.45 -0.22 Q 73.3 0.2 71.87 0.2 L 71.87 0.2 Z M 90.03 0 L 90.03 -13.89 L 93.1 -13.89 L 93.1 -8.56 L 98.7 -8.56 L 98.7 -13.89 L 101.76 -13.89 L 101.76 0 L 98.7 0 L 98.7 -5.78 L 93.1 -5.78 L 93.1 0 L 90.03 0 Z M 135.25 0.2 Q 133.67 0.2 132.39 -0.3 Q 131.11 -0.81 130.36 -1.88 Q 129.6 -2.95 129.63 -4.57 L 129.63 -4.57 L 132.82 -4.57 Q 132.82 -3.47 133.52 -2.88 Q 134.22 -2.29 135.35 -2.29 L 135.35 -2.29 Q 136.23 -2.29 136.78 -2.66 Q 137.34 -3.03 137.34 -3.91 L 137.34 -3.91 Q 137.34 -4.5 136.98 -4.85 Q 136.62 -5.2 136.07 -5.39 Q 135.53 -5.58 134.54 -5.8 L 134.54 -5.8 Q 134.04 -5.9 133.47 -6.05 L 133.47 -6.05 Q 132.47 -6.32 131.75 -6.71 Q 131.02 -7.1 130.54 -7.84 Q 130.07 -8.58 130.07 -9.77 L 130.07 -9.77 Q 130.07 -11.21 130.76 -12.18 Q 131.46 -13.16 132.58 -13.62 Q 133.7 -14.09 134.98 -14.09 L 134.98 -14.09 Q 136.27 -14.09 137.42 -13.62 Q 138.56 -13.15 139.29 -12.15 Q 140.01 -11.16 140.01 -9.67 L 140.01 -9.67 L 137.01 -9.67 Q 136.93 -10.62 136.36 -11.11 Q 135.78 -11.61 134.86 -11.61 L 134.86 -11.61 Q 134.07 -11.61 133.6 -11.24 Q 133.13 -10.88 133.13 -10.2 L 133.13 -10.2 Q 133.13 -9.63 133.46 -9.3 Q 133.8 -8.97 134.31 -8.8 Q 134.83 -8.64 135.74 -8.45 L 135.74 -8.45 L 136.17 -8.36 Q 137.42 -8.08 138.32 -7.67 Q 139.21 -7.26 139.81 -6.44 Q 140.4 -5.61 140.4 -4.25 L 140.4 -4.25 Q 140.4 -2.63 139.69 -1.63 Q 138.98 -0.64 137.83 -0.22 Q 136.68 0.2 135.25 0.2 L 135.25 0.2 Z M 153.41 0 L 153.41 -13.89 L 157.6 -13.89 Q 159.25 -13.89 160.28 -13.56 Q 161.31 -13.24 161.93 -12.59 L 161.93 -12.59 Q 163.01 -11.45 163.01 -9.36 L 163.01 -9.36 Q 163.01 -7.44 162.1 -6.37 L 162.1 -6.37 Q 161.47 -5.66 160.41 -5.31 Q 159.34 -4.96 157.6 -4.96 L 157.6 -4.96 L 156.47 -4.96 L 156.47 0 L 153.41 0 Z M 156.47 -7.58 L 157.29 -7.58 Q 157.87 -7.58 158.27 -7.61 Q 158.66 -7.64 159.03 -7.8 Q 159.4 -7.95 159.62 -8.28 L 159.62 -8.28 Q 159.95 -8.7 159.95 -9.42 L 159.95 -9.42 Q 159.95 -10.18 159.58 -10.62 L 159.58 -10.62 Q 159.34 -10.91 158.98 -11.04 Q 158.63 -11.17 158.25 -11.2 Q 157.87 -11.23 157.29 -11.23 L 157.29 -11.23 L 156.47 -11.23 L 156.47 -7.58 Z M 172.76 0 L 178.39 -13.89 L 180.99 -13.89 L 186.63 0 L 183.34 0 L 182.3 -2.8 L 177.08 -2.8 L 176.04 0 L 172.76 0 Z M 178.01 -5.32 L 181.36 -5.32 L 179.68 -9.84 L 178.01 -5.32 Z M 204.53 0.2 Q 202.38 0.2 200.76 -0.69 Q 199.15 -1.58 198.27 -3.21 Q 197.4 -4.83 197.4 -6.99 L 197.4 -6.99 Q 197.4 -9.16 198.29 -10.76 Q 199.18 -12.37 200.79 -13.23 Q 202.4 -14.09 204.53 -14.09 L 204.53 -14.09 Q 206.13 -14.09 207.51 -13.5 Q 208.88 -12.91 209.81 -11.81 Q 210.74 -10.72 211.02 -9.23 L 211.02 -9.23 L 207.79 -9.23 Q 207.61 -9.82 207.13 -10.27 Q 206.65 -10.72 205.98 -10.96 Q 205.3 -11.2 204.53 -11.2 L 204.53 -11.2 Q 203.4 -11.2 202.47 -10.7 Q 201.54 -10.2 201 -9.24 Q 200.47 -8.28 200.47 -6.97 L 200.47 -6.97 Q 200.47 -5.68 201 -4.71 Q 201.54 -3.74 202.47 -3.22 Q 203.39 -2.7 204.53 -2.7 L 204.53 -2.7 Q 205.73 -2.7 206.63 -3.23 Q 207.53 -3.76 207.79 -4.69 L 207.79 -4.69 L 211.04 -4.69 Q 210.75 -3.2 209.81 -2.09 Q 208.87 -0.98 207.49 -0.39 Q 206.11 0.2 204.53 0.2 L 204.53 0.2 Z M 223.84 0 L 223.84 -13.89 L 231.89 -13.89 L 231.89 -11.11 L 226.9 -11.11 L 226.9 -8.56 L 231.69 -8.56 L 231.69 -5.78 L 226.9 -5.78 L 226.9 -2.77 L 231.89 -2.77 L 231.89 0 L 223.84 0 Z M 250.06 0.2 Q 248.48 0.2 247.2 -0.3 Q 245.92 -0.81 245.17 -1.88 Q 244.41 -2.95 244.44 -4.57 L 244.44 -4.57 L 247.63 -4.57 Q 247.63 -3.47 248.33 -2.88 Q 249.03 -2.29 250.16 -2.29 L 250.16 -2.29 Q 251.04 -2.29 251.59 -2.66 Q 252.15 -3.03 252.15 -3.91 L 252.15 -3.91 Q 252.15 -4.5 251.79 -4.85 Q 251.43 -5.2 250.88 -5.39 Q 250.34 -5.58 249.35 -5.8 L 249.35 -5.8 Q 248.85 -5.9 248.28 -6.05 L 248.28 -6.05 Q 247.28 -6.32 246.55 -6.71 Q 245.83 -7.1 245.35 -7.84 Q 244.88 -8.58 244.88 -9.77 L 244.88 -9.77 Q 244.88 -11.21 245.57 -12.18 Q 246.27 -13.16 247.39 -13.62 Q 248.51 -14.09 249.79 -14.09 L 249.79 -14.09 Q 251.08 -14.09 252.23 -13.62 Q 253.37 -13.15 254.1 -12.15 Q 254.82 -11.16 254.82 -9.67 L 254.82 -9.67 L 251.82 -9.67 Q 251.74 -10.62 251.17 -11.11 Q 250.59 -11.61 249.67 -11.61 L 249.67 -11.61 Q 248.88 -11.61 248.41 -11.24 Q 247.94 -10.88 247.94 -10.2 L 247.94 -10.2 Q 247.94 -9.63 248.27 -9.3 Q 248.61 -8.97 249.12 -8.8 Q 249.63 -8.64 250.55 -8.45 L 250.55 -8.45 L 250.98 -8.36 Q 252.23 -8.08 253.13 -7.67 Q 254.02 -7.26 254.62 -6.44 Q 255.21 -5.61 255.21 -4.25 L 255.21 -4.25 Q 255.21 -2.63 254.5 -1.63 Q 253.79 -0.64 252.64 -0.22 Q 251.49 0.2 250.06 0.2 L 250.06 0.2 Z M 267.36 2.74 L 268.61 -2.77 L 272.04 -2.77 L 269.45 2.74 L 267.36 2.74 Z M 299.91 0 L 299.91 -13.89 L 302.97 -13.89 L 302.97 -8.56 L 308.58 -8.56 L 308.58 -13.89 L 311.64 -13.89 L 311.64 0 L 308.58 0 L 308.58 -5.78 L 302.97 -5.78 L 302.97 0 L 299.91 0 Z M 323.97 0 L 329.6 -13.89 L 332.2 -13.89 L 337.84 0 L 334.55 0 L 333.51 -2.8 L 328.3 -2.8 L 327.26 0 L 323.97 0 Z M 329.22 -5.32 L 332.57 -5.32 L 330.89 -9.84 L 329.22 -5.32 Z M 350.19 0 L 350.19 -13.89 L 354.37 -13.89 Q 356.02 -13.89 357.05 -13.56 Q 358.08 -13.24 358.7 -12.59 L 358.7 -12.59 Q 359.79 -11.45 359.79 -9.36 L 359.79 -9.36 Q 359.79 -7.44 358.87 -6.37 L 358.87 -6.37 Q 358.25 -5.66 357.18 -5.31 Q 356.11 -4.96 354.37 -4.96 L 354.37 -4.96 L 353.25 -4.96 L 353.25 0 L 350.19 0 Z M 353.25 -7.58 L 354.06 -7.58 Q 354.65 -7.58 355.04 -7.61 Q 355.44 -7.64 355.8 -7.8 Q 356.17 -7.95 356.39 -8.28 L 356.39 -8.28 Q 356.73 -8.7 356.73 -9.42 L 356.73 -9.42 Q 356.73 -10.18 356.35 -10.62 L 356.35 -10.62 Q 356.11 -10.91 355.76 -11.04 Q 355.4 -11.17 355.02 -11.2 Q 354.65 -11.23 354.06 -11.23 L 354.06 -11.23 L 353.25 -11.23 L 353.25 -7.58 Z M 372.55 0 L 372.55 -13.89 L 376.73 -13.89 Q 378.38 -13.89 379.41 -13.56 Q 380.44 -13.24 381.06 -12.59 L 381.06 -12.59 Q 382.15 -11.45 382.15 -9.36 L 382.15 -9.36 Q 382.15 -7.44 381.23 -6.37 L 381.23 -6.37 Q 380.61 -5.66 379.54 -5.31 Q 378.48 -4.96 376.73 -4.96 L 376.73 -4.96 L 375.61 -4.96 L 375.61 0 L 372.55 0 Z M 375.61 -7.58 L 376.43 -7.58 Q 377.01 -7.58 377.4 -7.61 Q 377.8 -7.64 378.17 -7.8 Q 378.53 -7.95 378.75 -8.28 L 378.75 -8.28 Q 379.09 -8.7 379.09 -9.42 L 379.09 -9.42 Q 379.09 -10.18 378.72 -10.62 L 378.72 -10.62 Q 378.48 -10.91 378.12 -11.04 Q 377.76 -11.17 377.39 -11.2 Q 377.01 -11.23 376.43 -11.23 L 376.43 -11.23 L 375.61 -11.23 L 375.61 -7.58 Z M 398.36 0 L 398.36 -6.64 L 393.23 -13.89 L 396.9 -13.89 L 399.89 -9.3 L 402.9 -13.89 L 406.55 -13.89 L 401.42 -6.64 L 401.42 0 L 398.36 0 Z M 433.73 0 L 433.73 -13.89 L 441.78 -13.89 L 441.78 -11.11 L 436.79 -11.11 L 436.79 -8.36 L 441.57 -8.36 L 441.57 -5.58 L 436.79 -5.58 L 436.79 0 L 433.73 0 Z M 452.45 0 L 458.08 -13.89 L 460.68 -13.89 L 466.32 0 L 463.03 0 L 461.99 -2.8 L 456.78 -2.8 L 455.74 0 L 452.45 0 Z M 457.7 -5.32 L 461.05 -5.32 L 459.37 -9.84 L 457.7 -5.32 Z M 484.22 0.2 Q 482.07 0.2 480.46 -0.69 Q 478.84 -1.58 477.96 -3.21 Q 477.09 -4.83 477.09 -6.99 L 477.09 -6.99 Q 477.09 -9.16 477.98 -10.76 Q 478.87 -12.37 480.48 -13.23 Q 482.1 -14.09 484.22 -14.09 L 484.22 -14.09 Q 485.83 -14.09 487.2 -13.5 Q 488.57 -12.91 489.5 -11.81 Q 490.43 -10.72 490.72 -9.23 L 490.72 -9.23 L 487.49 -9.23 Q 487.3 -9.82 486.82 -10.27 Q 486.35 -10.72 485.67 -10.96 Q 484.99 -11.2 484.22 -11.2 L 484.22 -11.2 Q 483.09 -11.2 482.16 -10.7 Q 481.23 -10.2 480.7 -9.24 Q 480.16 -8.28 480.16 -6.97 L 480.16 -6.97 Q 480.16 -5.68 480.7 -4.71 Q 481.23 -3.74 482.16 -3.22 Q 483.08 -2.7 484.22 -2.7 L 484.22 -2.7 Q 485.42 -2.7 486.32 -3.23 Q 487.22 -3.76 487.49 -4.69 L 487.49 -4.69 L 490.73 -4.69 Q 490.45 -3.2 489.51 -2.09 Q 488.56 -0.98 487.18 -0.39 Q 485.8 0.2 484.22 0.2 L 484.22 0.2 Z M 503.53 0 L 503.53 -13.89 L 511.59 -13.89 L 511.59 -11.11 L 506.59 -11.11 L 506.59 -8.56 L 511.38 -8.56 L 511.38 -5.78 L 506.59 -5.78 L 506.59 -2.77 L 511.59 -2.77 L 511.59 0 L 503.53 0 Z M 529.75 0.2 Q 528.18 0.2 526.9 -0.3 Q 525.62 -0.81 524.86 -1.88 Q 524.1 -2.95 524.13 -4.57 L 524.13 -4.57 L 527.32 -4.57 Q 527.32 -3.47 528.02 -2.88 Q 528.72 -2.29 529.86 -2.29 L 529.86 -2.29 Q 530.73 -2.29 531.29 -2.66 Q 531.84 -3.03 531.84 -3.91 L 531.84 -3.91 Q 531.84 -4.5 531.48 -4.85 Q 531.12 -5.2 530.58 -5.39 Q 530.03 -5.58 529.04 -5.8 L 529.04 -5.8 Q 528.54 -5.9 527.97 -6.05 L 527.97 -6.05 Q 526.97 -6.32 526.25 -6.71 Q 525.52 -7.1 525.05 -7.84 Q 524.57 -8.58 524.57 -9.77 L 524.57 -9.77 Q 524.57 -11.21 525.26 -12.18 Q 525.96 -13.16 527.08 -13.62 Q 528.21 -14.09 529.49 -14.09 L 529.49 -14.09 Q 530.77 -14.09 531.92 -13.62 Q 533.07 -13.15 533.79 -12.15 Q 534.51 -11.16 534.51 -9.67 L 534.51 -9.67 L 531.51 -9.67 Q 531.43 -10.62 530.86 -11.11 Q 530.28 -11.61 529.36 -11.61 L 529.36 -11.61 Q 528.58 -11.61 528.1 -11.24 Q 527.63 -10.88 527.63 -10.2 L 527.63 -10.2 Q 527.63 -9.63 527.96 -9.3 Q 528.3 -8.97 528.81 -8.8 Q 529.33 -8.64 530.25 -8.45 L 530.25 -8.45 L 530.67 -8.36 Q 531.93 -8.08 532.82 -7.67 Q 533.72 -7.26 534.31 -6.44 Q 534.9 -5.61 534.9 -4.25 L 534.9 -4.25 Q 534.9 -2.63 534.19 -1.63 Q 533.48 -0.64 532.33 -0.22 Q 531.18 0.2 529.75 0.2 L 529.75 0.2 Z" stroke-linecap="round" />
</g>
</g>
</g>
</svg>